<svg xmlns="http://www.w3.org/2000/svg" viewBox="0 0 231.78 300.92"><defs><style>.cls-1{isolation:isolate;}.cls-12,.cls-14,.cls-16,.cls-2,.cls-5,.cls-6,.cls-7,.cls-8{fill:none;stroke:#000;}.cls-14,.cls-16,.cls-2{stroke-miterlimit:10;}.cls-2,.cls-6{stroke-width:6px;}.cls-3{fill:#d29a42;}.cls-4{opacity:0.4;}.cls-12,.cls-5,.cls-6,.cls-7,.cls-8{stroke-linejoin:round;}.cls-16,.cls-5,.cls-8{stroke-width:5px;}.cls-12,.cls-6,.cls-7,.cls-8{stroke-linecap:round;}.cls-7{stroke-width:4.57px;}.cls-9{fill:#6c3b21;}.cls-10{mix-blend-mode:multiply;}.cls-11{fill:#987bc2;}.cls-13{fill:#7e4919;}.cls-14{stroke-width:4px;}.cls-15{fill:#fff;}.cls-17{fill:#242c38;}.cls-18{fill:#586a81;}.cls-19{fill:#a08ec1;}</style></defs><title>BASE</title><g class="cls-1"><g id="Calque_2" data-name="Calque 2"><g id="BASE"><g id="HEAD"><path class="cls-2" d="M112.4,84.79c7.53,0,18.4-5.43,20.75-10.5,1.94-4.18,1.72-10.07,3-13.83,1.36-4.14,4.81-10.75,5.27-18,.37-5.72-2.06-27-22.1-35.37-18.43-7.71-40-1.86-49.39,15.56-5.64,10.45-2.72,27.8.27,33.32C72.1,59.54,74.72,71.33,78.3,75,83.29,80.2,102.39,84.79,112.4,84.79Z"/><path class="cls-3" d="M112.4,84.79c7.53,0,18.4-5.43,20.75-10.5,1.94-4.18,1.72-10.07,3-13.83,1.36-4.14,4.81-10.75,5.27-18,.37-5.72-2.06-27-22.1-35.37-18.43-7.71-40-1.86-49.39,15.56-5.64,10.45-2.72,27.8.27,33.32C72.1,59.54,74.72,71.33,78.3,75,83.29,80.2,102.39,84.79,112.4,84.79Z"/><path class="cls-4" d="M111.75,3.2C93.48,5.59,83.94,15.65,81.3,22.54,78,31.17,78.53,50.65,83.23,63.69c.68,1.9,6.17,6.34,7.67,9.84,3.42,8,15.75,10.88,22.61,12.89-14.19-.62-24.62-4.58-35.2-9.14-6.81-9.68-19-34.25-10.5-53.5C74.56,12.78,82.89.56,111.75,3.2Z"/></g><g id="EAR"><path d="M39.49,62.93a12,12,0,0,0-4-2.33,3.09,3.09,0,0,0-1.7,0,3,3,0,0,0-1.25.78C30.74,63,30.25,65.42,30.67,68a13.91,13.91,0,0,0,1.23,3.81,9.55,9.55,0,0,0,2.22,3,4.15,4.15,0,0,0,3.28.82,7.63,7.63,0,0,0,4-2.15,6.4,6.4,0,0,1-1,2.45,6.63,6.63,0,0,1-2.06,2,6.7,6.7,0,0,1-2.93.9c-.26,0-.62,0-.78,0h-.23l-.17,0a3.11,3.11,0,0,1-.44-.06,6.5,6.5,0,0,1-1.63-.54,11,11,0,0,1-4.35-4.09,14.47,14.47,0,0,1-2-5.37,11.7,11.7,0,0,1,.54-6,9.49,9.49,0,0,1,1.61-2.72A8.73,8.73,0,0,1,29,59a8.85,8.85,0,0,1,1.3-.91,6,6,0,0,1,3.32-.81,5.55,5.55,0,0,1,3,1.15,7.65,7.65,0,0,1,1.84,2.09A8.36,8.36,0,0,1,39.49,62.93Z"/><path class="cls-3" d="M39.49,62.93S35,55.6,30.2,60.76c-5,5.38-.23,15.57,4.4,16.39s6.76-3.59,6.76-3.59"/><path d="M37.24,72.81a2.85,2.85,0,0,1-1,.59,1.81,1.81,0,0,1-1.31-.06,2.26,2.26,0,0,1-1-1,3.48,3.48,0,0,1-.21-2.67,2.16,2.16,0,0,1,2.76-1.49,3.85,3.85,0,0,1,1.28.65l-1.57.73A14,14,0,0,0,36,66.73a4,4,0,0,0-1-2.21,1.5,1.5,0,0,0-2,0,4,4,0,0,0-1.46,2.45,3.65,3.65,0,0,1,.7-3.24,2.88,2.88,0,0,1,1.69-1,2.82,2.82,0,0,1,2,.46,5.22,5.22,0,0,1,2,3.14,11.67,11.67,0,0,1,.24,3.36L38,71.56l-1.45-1.18a3,3,0,0,0-.63-.41.48.48,0,0,0-.37,0c-.21,0-.57.57-.61,1.14a1.86,1.86,0,0,0,.41,1.56A2,2,0,0,0,37.24,72.81Z"/><path class="cls-4" d="M30.66,59.44C26,65.82,31.91,78.69,40.91,74.57c0,0-2.32,3.81-6.69,3.44-2.87-.25-6.08-4.81-7.06-9.19A8.68,8.68,0,0,1,30.66,59.44Z"/></g><g id="L_ARM" data-name="L ARM"><g id="L_HAND" data-name="L HAND"><path class="cls-5" d="M174.53,166.62s3.17,7.24.89,10c-.73.86-6.59,1.52-9.91.59-.81-1.2-1.81-4-1.65-5-.38-3,2.23-5.79,5.83-6.25S174.53,166.62,174.53,166.62Z"/><path class="cls-3" d="M174.53,166.62s3.17,7.24.89,10c-.73.86-6.59,1.52-9.91.59-.81-1.2-1.81-4-1.65-5-.38-3,2.23-5.79,5.83-6.25S174.53,166.62,174.53,166.62Z"/></g><g id="L_ARM-2" data-name="L ARM"><path class="cls-6" d="M167.87,124.73c-7,1.86-5.85,22.61-5.85,22.61A17.31,17.31,0,0,0,176.67,146c-1.94-4.34-2.91-14-5.4-19.57A2.86,2.86,0,0,0,167.87,124.73Z"/><path class="cls-3" d="M167.87,124.73c-7,1.86-5.85,22.61-5.85,22.61A17.31,17.31,0,0,0,176.67,146c-1.94-4.34-2.91-14-5.4-19.57A2.86,2.86,0,0,0,167.87,124.73Z"/><path class="cls-4" d="M165.69,124.69c-2.41,7.05-1.38,19.48,11,18.81l1.16,3.4C172.5,150,166.88,150.2,161,148,161,148,159.12,132.83,165.69,124.69Z"/></g><g id="L_FINGERS" data-name="L FINGERS"><path class="cls-7" d="M165.45,193.61c-.52.72-.92,5.46.75,5.88s10.12-1.08,10.71-2.69-2.26-4.79-3.27-5.31S166.15,192.66,165.45,193.61Z"/><path class="cls-3" d="M165.45,193.61c-.52.72-.92,5.46.75,5.88s10.12-1.08,10.71-2.69-2.26-4.79-3.27-5.31S166.15,192.66,165.45,193.61Z"/><path class="cls-7" d="M169.78,189.73c-.8,1.26-.61,4.21.39,4.5,1.08-.74,5-1.95,6.07-1.64.87-1.43.28-4.36-1-5.1C173.84,187.7,170.54,188.54,169.78,189.73Z"/><path class="cls-3" d="M169.78,189.73c-.8,1.26-.61,4.21.39,4.5,1.08-.74,5-1.95,6.07-1.64.87-1.43.28-4.36-1-5.1C173.84,187.7,170.54,188.54,169.78,189.73Z"/></g><g id="L_ARM_CLOTH" data-name="L ARM CLOTH"><path class="cls-8" d="M206.33,163.48a44.09,44.09,0,0,1-16.67.5,13.27,13.27,0,0,1-.08-6.66,77.7,77.7,0,0,0,16.66-.51C206.63,159.75,206.83,161,206.33,163.48Z"/><path class="cls-9" d="M206.33,163.48a44.09,44.09,0,0,1-16.67.5,13.27,13.27,0,0,1-.08-6.66,77.7,77.7,0,0,0,16.66-.51C206.63,159.75,206.83,161,206.33,163.48Z"/><g class="cls-10"><path class="cls-11" d="M194.49,156.78c-.94,5,2.33,6.09,5.95,8.69l-11.19-.94c-.78-2.23-1.75-2.52-.66-7.84Z"/></g><path class="cls-12" d="M199,162.23a11.68,11.68,0,0,0,2.41.54"/><path class="cls-12" d="M188.31,158.19a14.52,14.52,0,0,0,3.52,2.47"/></g></g><g id="L_LEG" data-name="L LEG"><g id="R_LEG_1" data-name="R LEG 1"><path class="cls-6" d="M141,223.19l.84,15.59c-2.88,2-6.23,2.22-9.87,1.41l-6-14.73C128.28,221.45,135.4,219.76,141,223.19Z"/><path class="cls-3" d="M141,223.19l.84,15.59c-2.88,2-6.23,2.22-9.87,1.41l-6-14.73C128.28,221.45,135.4,219.76,141,223.19Z"/><path class="cls-4" d="M132.37,220.28c-1.75,6,.7,16.77,4.55,21.43l-6.46-.28c-2.23-5.43-3.86-11.2-6.18-16.7A14.23,14.23,0,0,1,132.37,220.28Z"/></g><g id="L_LEG_2" data-name="L LEG 2"><path class="cls-6" d="M130,257.54c2.31-2.13,8.37-1.93,11.38-1.35l1.86,7.6s2.62,2.73,2,3.06c-2.17,1.25-11.92,1.79-14.72.56C130,267.15,130,257.54,130,257.54Z"/><path class="cls-3" d="M130,257.54c2.31-2.13,8.37-1.93,11.38-1.35l1.86,7.6s2.62,2.73,2,3.06c-2.17,1.25-11.92,1.79-14.72.56C130,267.15,130,257.54,130,257.54Z"/><path d="M144,264.48l-1.13-.33-.54-.16-.58-.1-.62-.1c-.22,0-.44-.09-.67-.1-.91-.07-1.84-.16-2.54-.15l-1.18,0,1.14-.28c.69-.19,1.61-.36,2.56-.54.23-.05.48-.06.72-.09l.72-.07.68-.06h.57l1.17,0Z"/><path class="cls-4" d="M129.27,265.31c4.62,2,10.47,2,17.18.62a2.56,2.56,0,0,1-1.9,2.77c-2.17.63-14.42.69-14.94.1S129.27,265.31,129.27,265.31Z"/></g><g id="L_SHOE" data-name="L SHOE"><path class="cls-6" d="M125.06,288.75c2.86,1.15,8.93,1.44,12.18,1.06l.49,3.77s2.63,2.72,2.05,3.06c-2.17,1.25-11.91,1.82-14.72.6C124.47,297,125.06,288.75,125.06,288.75Z"/><path class="cls-13" d="M125.06,288.75c2.86,1.15,8.93,1.44,12.18,1.06l.49,3.77s2.63,2.72,2.05,3.06c-2.17,1.25-11.91,1.82-14.72.6C124.47,297,125.06,288.75,125.06,288.75Z"/><path d="M138.39,294.26l-.84-.28c-.28-.08-.56-.15-.85-.21a15.32,15.32,0,0,0-1.8-.28c-1.22-.13-2.47-.16-3.72-.17a37.26,37.26,0,0,1,3.69-.83c.63-.1,1.27-.18,1.93-.22.33,0,.66,0,1,0l1,.05Z"/><path class="cls-4" d="M123.75,295.15c4.63,2,10.48,1.93,17.18.56a2.56,2.56,0,0,1-1.88,2.78c-2.17.64-14.42.73-15,.15S123.75,295.15,123.75,295.15Z"/></g></g><g id="R_LEG" data-name="R LEG"><g id="L_LEG_1" data-name="L LEG 1"><path class="cls-6" d="M83.39,225.05l-4.11,14.22c-4.09,2-7.89,1.29-11.59-.32l.64-15.69C73.23,220.5,78.68,220.61,83.39,225.05Z"/><path class="cls-3" d="M83.39,225.05l-4.11,14.22c-4.09,2-7.89,1.29-11.59-.32l.64-15.69C73.23,220.5,78.68,220.61,83.39,225.05Z"/><path class="cls-4" d="M75.43,220.16c-3.46,5.18-4.59,16.73-2.33,21.53a10.27,10.27,0,0,1-6.29-2.43,76.2,76.2,0,0,1,.77-16.48A15.14,15.14,0,0,1,75.43,220.16Z"/></g><g id="L_LEG_2-2" data-name="L LEG 2"><path class="cls-6" d="M67.32,257.38c2.76-1.37,9.15-1.44,12.11,1.67l.33,5.08s2.49,2.85,1.9,3.16c-2.23,1.15-12,1.23-14.73-.13C66.35,266.88,67.32,257.38,67.32,257.38Z"/><path class="cls-3" d="M67.32,257.38c2.76-1.37,9.15-1.44,12.11,1.67l.33,5.08s2.49,2.85,1.9,3.16c-2.23,1.15-12,1.23-14.73-.13C66.35,266.88,67.32,257.38,67.32,257.38Z"/><path d="M80.44,264.86l-1.11-.38-.54-.19-.57-.12L77.6,264c-.22,0-.43-.1-.66-.13-.91-.11-1.83-.24-2.53-.27l-1.17-.08,1.15-.23c.69-.16,1.62-.28,2.57-.42.24,0,.49,0,.73,0l.72,0,.69,0,.56,0,1.17.08Z"/><path class="cls-4" d="M65.72,265c4.53,2.17,10.38,2.44,17.14,1.41a2.58,2.58,0,0,1-2,2.69c-2.21.52-14.44,0-14.94-.6S65.72,265,65.72,265Z"/></g><g id="R_SHOE" data-name="R SHOE"><path class="cls-6" d="M71.43,287.89c2.73,1.42,8.75,2.3,12,2.23l.12,3.8s2.36,3,1.75,3.24c-2.28,1-12,.67-14.71-.81C70.05,296,71.43,287.89,71.43,287.89Z"/><path class="cls-13" d="M71.43,287.89c2.73,1.42,8.75,2.3,12,2.23l.12,3.8s2.36,3,1.75,3.24c-2.28,1-12,.67-14.71-.81C70.05,296,71.43,287.89,71.43,287.89Z"/><path d="M84.16,294.66c-.29-.14-.55-.26-.8-.36s-.55-.21-.83-.3c-.57-.18-1.16-.32-1.76-.45a36.81,36.81,0,0,0-3.69-.51,33.3,33.3,0,0,1,3.76-.48,17.79,17.79,0,0,1,1.94,0c.33,0,.66,0,1,.08s.69.1,1,.15Z"/><path class="cls-4" d="M69.62,293.24c4.23,2.72,10,3.7,16.84,3.5a2.56,2.56,0,0,1-2.33,2.42c-2.25.25-14.34-1.75-14.76-2.42S69.62,293.24,69.62,293.24Z"/></g></g><g id="BELT"><path class="cls-8" d="M128.16,193.44c-7.45,1.78-32.91.11-40.61-1.35l.23-5.19c6.2,1.69,32.7,3.47,40.49,1.64Z"/><path class="cls-9" d="M128.16,193.44c-7.45,1.78-32.91.11-40.61-1.35l.23-5.19c6.2,1.69,32.7,3.47,40.49,1.64Z"/><g class="cls-10"><path class="cls-11" d="M86.74,189.5a137.56,137.56,0,0,0,42.5,2.31l-.31,2.5a117.18,117.18,0,0,1-42.38-1.75Z"/></g></g><g id="R_ARM" data-name="R ARM"><g id="R_HAND" data-name="R HAND"><path class="cls-2" d="M47.51,173c.41,3.4,1.64,6.89-2,9.82-3.2.95-6.21.2-9.34-1.83-.49-1.36-.77-4.29-.34-5.29.37-3,3.59-5.06,7.2-4.61S47.51,173,47.51,173Z"/><path class="cls-3" d="M47.51,173c.41,3.4,1.64,6.89-2,9.82-3.2.95-6.21.2-9.34-1.83-.49-1.36-.77-4.29-.34-5.29.37-3,3.59-5.06,7.2-4.61S47.51,173,47.51,173Z"/><path d="M44.77,173.34c.21-.11.43-.26.64-.35s.41-.2.61-.27a9.68,9.68,0,0,1,1.16-.37,7.2,7.2,0,0,1,1.1-.18,9.13,9.13,0,0,1,1,0l.44,0,1.12,1.43a7.19,7.19,0,0,1,1.24,2.51,6.84,6.84,0,0,1,.23,1.5,7,7,0,0,1,0,.9,5,5,0,0,1-.24,1.22,3.86,3.86,0,0,1-.45,1,3,3,0,0,1-1.47,1.23l-.07,0h0l-.27.09h-.14s-.26,0-.41,0a3.2,3.2,0,0,1-.46,0l-.25-.06a4.1,4.1,0,0,1-.78-.3c-.23-.12-.43-.25-.63-.38a7.65,7.65,0,0,1-1.09-1,7.3,7.3,0,0,1-.49-.59c-.15-.2-.3-.45-.44-.68.24-.13.48-.3.7-.4s.45-.24.66-.33l.63-.27c.21-.1.4-.15.59-.24a5.51,5.51,0,0,0,.54-.22,1.18,1.18,0,0,0,.39-.21l.05-.06s-.12,0-.17,0-.22,0-.12,0l.06,0,0,0h0l-.34.12a2.18,2.18,0,0,0-1,.82c-.16.22-.22.36-.27.43s-.11.11-.16.06a1.42,1.42,0,0,1-.12-.27,8.05,8.05,0,0,1-.24-.81,9.75,9.75,0,0,1-.28-1.94l1.56,1.45a7.1,7.1,0,0,1-.8-.67,7.3,7.3,0,0,1-.74-.82,11.16,11.16,0,0,1-.69-1c-.11-.18-.21-.39-.31-.59S44.86,173.57,44.77,173.34Z"/><path class="cls-3" d="M44.77,173.34l3.69,1.28c.89,2.1,1.45,4.74.69,5s-4-.56-4-.56"/><path class="cls-4" d="M49.26,175.67s-10.38.66-11.13,1.73,1.26,5.8,1.26,5.8l-4.66-1.4L34,173.56c5.46-4.63,10.54-5.22,15,.57Z"/></g><g id="R_ARM-2" data-name="R ARM"><path class="cls-6" d="M45.36,127.69c-7.24.61-9.7,21.25-9.7,21.25a20.86,20.86,0,0,0,14.66,1.21c-1.15-4.61-.41-14.3-1.9-20.21A2.85,2.85,0,0,0,45.36,127.69Z"/><path class="cls-3" d="M45.36,127.69c-7.24.61-9.7,21.25-9.7,21.25a20.86,20.86,0,0,0,14.66,1.21c-1.15-4.61-.41-14.3-1.9-20.21A2.85,2.85,0,0,0,45.36,127.69Z"/><path class="cls-4" d="M43.23,127.28c-3.6,6.51-4.76,18.93,7.52,20.43l.54,3.55a23.23,23.23,0,0,1-16.72-1.87S35.34,134.14,43.23,127.28Z"/></g><g id="R_ARM_CLOTH" data-name="R ARM CLOTH"><path class="cls-8" d="M19.32,162.89A44.11,44.11,0,0,1,2.76,161a8.7,8.7,0,0,1,.45-5.56,78.13,78.13,0,0,0,16.56,1.94A23,23,0,0,1,19.32,162.89Z"/><path class="cls-9" d="M19.32,162.89A44.11,44.11,0,0,1,2.76,161a8.7,8.7,0,0,1,.45-5.56,78.13,78.13,0,0,0,16.56,1.94A23,23,0,0,1,19.32,162.89Z"/><g class="cls-10"><path class="cls-11" d="M8.18,155.46c-1.66,4.77,1.77,6.11,5,8.54L2.27,161.42a8.51,8.51,0,0,1,.29-6.92Z"/></g><path class="cls-12" d="M8.83,160.45a13.77,13.77,0,0,0,3.87,2.75"/><path class="cls-12" d="M2.28,155a14.31,14.31,0,0,0,3.11,3"/></g></g><g id="MOUTH"><path class="cls-14" d="M213.72,55.52c-3,0-10.18-.65-12.51-1.56a9.19,9.19,0,0,1,5-4.72C212,50.24,214.07,54,213.72,55.52Z"/><path class="cls-15" d="M213.72,55.52c-3,0-10.18-.65-12.51-1.56a9.19,9.19,0,0,1,5-4.72C212,50.24,214.07,54,213.72,55.52Z"/><polygon points="203.81 49.79 207.35 52.97 201.7 51.53 203.81 49.79"/></g><g id="EYES"><path class="cls-16" d="M203.37,23.64c-12.75,8-24.11,5.28-22.08-9.52,1.29-3.73,6.88-2.52,13.33-.29S204.66,19.91,203.37,23.64Z"/><path class="cls-15" d="M203.37,23.64c-12.75,8-24.11,5.28-22.08-9.52,1.29-3.73,6.88-2.52,13.33-.29S204.66,19.91,203.37,23.64Z"/><circle cx="197.99" cy="22.26" r="3.87"/><path class="cls-16" d="M207.29,15.08A19,19,0,0,1,205,23.34c-8.66-3.09-15.75-6.19-25-8.58l-3.51.78c-.06-3.89.44-7.68,4-10.91,9,3.1,15.64,8.38,24.26,11.36A3.57,3.57,0,0,0,207.29,15.08Z"/><path class="cls-17" d="M207.29,15.08A19,19,0,0,1,205,23.34c-8.66-3.09-15.75-6.19-25-8.58l-3.51.78c-.06-3.89.44-7.68,4-10.91,9,3.1,15.64,8.38,24.26,11.36A3.57,3.57,0,0,0,207.29,15.08Z"/><path class="cls-18" d="M177.49,9.64a10.44,10.44,0,0,1,1-2.64,7.73,7.73,0,0,1,1.88-2.25l.22-.17.34.11a51.4,51.4,0,0,1,6.22,2.61c2,1,4,2,5.92,3.09s3.9,2.06,5.88,3,4,1.84,6.07,2.64h-.18c.73-.23,1.46-.45,2.2-.66-.66.4-1.31.79-2,1.17l-.06,0-.12,0a42,42,0,0,1-12.72-4.44c-2-1-3.94-2.11-5.87-3.2s-3.85-2.16-5.81-3.18l.55,0a8,8,0,0,0-2,1.69A15.38,15.38,0,0,0,177.49,9.64Z"/><path class="cls-4" d="M203.37,23.64l-21.08-6.93a5.34,5.34,0,0,0-2-.29c-1.35,8.06,3.53,16.37,15.7,11.22-8.25.59-11.08-1.61-12.58-7.75l18.83,5.83Z"/><g class="cls-10"><path class="cls-19" d="M206.86,21.51a171.38,171.38,0,0,1-25.63-9.62l-6.37,1v3.87l5.62-.75,25.25,8.75Z"/></g><path class="cls-16" d="M215.48,24.48c6.78,5.38,11.83,1.73,12.29-10.08C224.9,13.47,215.46,20.72,215.48,24.48Z"/><path class="cls-15" d="M215.48,24.48c6.78,5.38,11.83,1.73,12.29-10.08C224.9,13.47,215.46,20.72,215.48,24.48Z"/><circle cx="224.37" cy="20.14" r="3.87"/><path class="cls-16" d="M214.26,15.64A22.36,22.36,0,0,0,215,23.2a104.27,104.27,0,0,1,12.56-8.33l1.65.78c.31-3-.21-6.49-1.22-7.74-4.24,3.11-7.19,6.16-11.24,9.15A5,5,0,0,1,214.26,15.64Z"/><path class="cls-17" d="M214.26,15.64A22.36,22.36,0,0,0,215,23.2a104.27,104.27,0,0,1,12.56-8.33l1.65.78c.31-3-.21-6.49-1.22-7.74-4.24,3.11-7.19,6.16-11.24,9.15A5,5,0,0,1,214.26,15.64Z"/><path class="cls-18" d="M214.26,15.64c.94.39,1.82.86,2.7,1.33l-.56,0c1.91-1.43,3.8-2.81,5.63-4.24.92-.71,1.8-1.46,2.7-2.2s1.76-1.52,2.65-2.31l.74-.67.25.8a20.71,20.71,0,0,1,.69,2.87,20.64,20.64,0,0,1-1.77-2.35l1,.13a20.34,20.34,0,0,1-2.3,2.85,23.51,23.51,0,0,1-2.73,2.46,26.15,26.15,0,0,1-6.35,3.57l-.37.15-.19-.19C215.63,17.12,214.92,16.42,214.26,15.64Z"/><path class="cls-4" d="M227.54,17.62l-8.79,7.09c1.57,1.4,3.93,1.59,6.83,1q-4.7,3.63-10.47-.56L227.79,16Z"/><g class="cls-10"><polygon class="cls-19" points="213.36 21.76 227.61 13.64 230.48 15.01 230.36 17.76 227.72 16.03 213.86 24.51 213.36 21.76"/></g><path d="M209.68,7.61c-.52-.81-.93-1.53-1.39-2.18a18.48,18.48,0,0,0-1.41-1.83c-.51-.57-1-1.13-1.63-1.71S204,.73,203.42,0a6.13,6.13,0,0,1,2.71.59,6.87,6.87,0,0,1,2.25,1.7A5.59,5.59,0,0,1,209.68,7.61Z"/><path d="M213.47,7.58a3,3,0,0,1-.31-2,4.57,4.57,0,0,1,.75-1.82,4.81,4.81,0,0,1,1.41-1.36,3.49,3.49,0,0,1,1.92-.57,11.15,11.15,0,0,1-.81,1.69c-.28.48-.57.93-.87,1.37s-.61.85-.95,1.29Z"/></g><g id="TORSO"><path class="cls-8" d="M91.17,118.64,90.36,149c13.09,3,25,3.8,35.69,2.24l-1.23-30.39C119.07,106.62,97.25,105.85,91.17,118.64Z"/><path class="cls-3" d="M91.17,118.64,90.36,149c13.09,3,25,3.8,35.69,2.24l-1.23-30.39C119.07,106.62,97.25,105.85,91.17,118.64Z"/><path class="cls-4" d="M106.78,108.93c-9.5,4.25-9.13,28.57-7,33.07,1,2.05,17.33,4.66,26.75,3.58l-.09,6.08c-14.08,2.76-25.4.65-36.65-2.47l.65-31.11C93.88,111.27,99.77,108.17,106.78,108.93Z"/></g><g id="MOUTH_2" data-name="MOUTH 2"><path d="M208.91,79.81a4.07,4.07,0,0,1-1.76.71,5.44,5.44,0,0,1-1.8,0,5.32,5.32,0,0,1-1.68-.62,3.9,3.9,0,0,1-1.39-1.3,6.41,6.41,0,0,1,1.82-.21,9.56,9.56,0,0,1,1.62.16,10.07,10.07,0,0,1,1.56.43A6.73,6.73,0,0,1,208.91,79.81Z"/></g></g></g></g></svg>