<svg xmlns="http://www.w3.org/2000/svg" viewBox="0 0 88.23 19.68"><defs><style>.cls-1{isolation:isolate;}.cls-11,.cls-15,.cls-16,.cls-2,.cls-4,.cls-6{fill:none;stroke-linecap:round;stroke-linejoin:round;}.cls-11,.cls-15,.cls-2,.cls-4,.cls-6{stroke:#000;}.cls-2{stroke-width:4px;}.cls-3{fill:#80402d;}.cls-5{fill:#a8543b;}.cls-6{stroke-width:5px;}.cls-7{fill:#9e6e4e;}.cls-8{mix-blend-mode:multiply;}.cls-9{fill:#a38852;}.cls-10{fill:#81827e;}.cls-11{stroke-width:2px;}.cls-12{fill:#545452;}.cls-13{mix-blend-mode:soft-light;}.cls-14{fill:#c1c2bc;}.cls-15{stroke-width:3px;}.cls-16{stroke:#fff;stroke-width:0.75px;}.cls-17{opacity:0.4;}</style></defs><title>arrow</title><g class="cls-1"><g id="Calque_2" data-name="Calque 2"><g id="ARCHER"><g id="ARCHER-2" data-name="ARCHER"><g id="ARROW"><polygon class="cls-2" points="15.62 13.35 13.83 16.05 2 16.05 4.23 13.34 15.62 13.35"/><polygon class="cls-3" points="15.62 13.35 13.83 16.05 2 16.05 4.23 13.34 15.62 13.35"/><line class="cls-4" x1="4.97" y1="16.83" x2="8.38" y2="12.78"/><line class="cls-4" x1="9.72" y1="17.12" x2="13.13" y2="13.07"/><polygon class="cls-2" points="15.62 6.34 13.83 3.65 2 3.65 4.23 6.36 15.62 6.34"/><polygon class="cls-5" points="15.62 6.34 13.83 3.65 2 3.65 4.23 6.36 15.62 6.34"/><line class="cls-4" x1="4.97" y1="2.87" x2="8.38" y2="6.92"/><line class="cls-4" x1="9.72" y1="2.58" x2="13.13" y2="6.63"/><rect class="cls-6" x="4.57" y="8.68" width="55.92" height="2.39"/><rect class="cls-7" x="4.57" y="8.68" width="55.92" height="2.39"/><g class="cls-8"><rect class="cls-9" x="3.5" y="9.82" width="57.43" height="1.74"/></g><path class="cls-4" d="M37.58,7.34a13.26,13.26,0,0,0,1.66,2"/><path class="cls-4" d="M7.29,12.41c2.06-.56,4-1.66,6.06-2"/><path class="cls-6" d="M85.73,9.84,67.31,17.18a14.68,14.68,0,0,1,0-14.68Z"/><path class="cls-10" d="M85.73,9.84,67.31,17.18a14.68,14.68,0,0,1,0-14.68Z"/><path class="cls-11" d="M65.35,9.84a14.94,14.94,0,0,0,2,7.34L85.73,9.84A132.05,132.05,0,0,1,65.35,9.84Z"/><path class="cls-12" d="M65.35,9.84a14.94,14.94,0,0,0,2,7.34L85.73,9.84A132.05,132.05,0,0,1,65.35,9.84Z"/><g class="cls-13"><path class="cls-14" d="M85.73,9.84,67.31,17.18a14.94,14.94,0,0,1-2-7.34l1,.07a15.5,15.5,0,0,0,1.8,5.2l12.51-5C82.36,10.06,84.05,10,85.73,9.84Z"/></g><path class="cls-15" d="M71.09,9.84l-10.83,2.5a3.6,3.6,0,0,1,0-5Z"/><path class="cls-10" d="M71.09,9.84l-10.83,2.5a3.6,3.6,0,0,1,0-5Z"/><line class="cls-16" x1="67.91" y1="3.83" x2="74.04" y2="6.02"/><line class="cls-16" x1="75.96" y1="6.87" x2="78.37" y2="7.61"/><path class="cls-4" d="M71.87,16.64A15.8,15.8,0,0,0,73,14.08"/><polygon class="cls-17" points="58.43 9.96 71.46 9.77 58.96 11.71 58.43 9.96"/></g></g></g></g></g></svg>