<svg xmlns="http://www.w3.org/2000/svg" viewBox="0 0 81.55 77.1"><defs><style>.cls-1{isolation:isolate;}.cls-11,.cls-2,.cls-4,.cls-6,.cls-8{fill:none;stroke:#000;}.cls-2,.cls-4{stroke-linecap:round;stroke-linejoin:round;}.cls-2,.cls-6{stroke-width:5px;}.cls-3{fill:#573c2b;}.cls-5{opacity:0.4;}.cls-11,.cls-6,.cls-8{stroke-miterlimit:10;}.cls-7{fill:#545452;}.cls-8{stroke-width:2px;}.cls-9{fill:#c1c2bc;}.cls-10{mix-blend-mode:soft-light;}.cls-11{stroke-width:3px;}.cls-12{fill:#c7c29d;}.cls-13{fill:#81827e;}.cls-14{mix-blend-mode:overlay;}.cls-15{fill:#b7b4cc;}</style></defs><title>axe</title><g class="cls-1"><g id="Calque_2" data-name="Calque 2"><g id="DWARF"><g id="DWARF-2" data-name="DWARF"><g id="L_ARM" data-name="L ARM"><g id="AXE"><path class="cls-2" d="M6.12,74.6A4.11,4.11,0,0,1,2.5,72L36,25.1l3.62,2.58Z"/><path class="cls-3" d="M6.12,74.6A4.11,4.11,0,0,1,2.5,72L36,25.1l3.62,2.58Z"/><rect class="cls-2" x="49.13" y="4.08" width="5.94" height="4.41" transform="translate(16.71 45.04) rotate(-54.47)"/><rect class="cls-3" x="49.13" y="4.08" width="5.94" height="4.41" transform="translate(16.71 45.04) rotate(-54.47)"/><path class="cls-4" d="M5.74,69.17a20.42,20.42,0,0,1-3.35.89"/><path class="cls-4" d="M32.52,35.09c-.08,1.54-.37,3-.45,4.58"/><line class="cls-4" x1="36.26" y1="28.34" x2="34.54" y2="31.31"/><polygon class="cls-5" points="3.11 74.2 0.8 72.55 34.24 25.72 39.47 29.45 38.21 31.22 34.55 30.16 3.11 74.2"/><path class="cls-6" d="M52.29,53.5,46.88,39c5.72-3.91,7.79-8.63,4.63-14.51a18.68,18.68,0,0,0-8.3-3.29l-3.57.41-7.21-5.14A22.63,22.63,0,0,1,42,3l6.8,4.85L52,10.1c7.23,7.64,16.65,12.23,26.47,16.26C73.66,40.4,63.73,47.91,52.29,53.5Z"/><path class="cls-7" d="M52.29,53.5,46.88,39c5.72-3.91,7.79-8.63,4.63-14.51a18.68,18.68,0,0,0-8.3-3.29l-3.57.41-7.21-5.14A22.63,22.63,0,0,1,42,3l6.8,4.85L52,10.1c7.23,7.64,16.65,12.23,26.47,16.26C73.66,40.4,63.73,47.91,52.29,53.5Z"/><path class="cls-8" d="M49.85,47l2.44,6.55c11.44-5.59,21.37-13.1,26.13-27.14q-2.76-1.14-5.36-2.51C68.84,35.05,60.8,42.45,49.85,47Z"/><path class="cls-9" d="M49.85,47l2.44,6.55c11.44-5.59,21.37-13.1,26.13-27.14q-2.76-1.14-5.36-2.51C68.84,35.05,60.8,42.45,49.85,47Z"/><path class="cls-4" d="M51.54,15a13.36,13.36,0,0,1,1.78,2.67"/><path class="cls-4" d="M51.87,22.71a21.94,21.94,0,0,0-1,3.25"/><path class="cls-4" d="M39.48,15.43a23.26,23.26,0,0,0-2.83-1.62"/><path class="cls-4" d="M42,1.59a22.37,22.37,0,0,1,.11,3.47"/><line class="cls-4" x1="56.26" y1="48.86" x2="57.56" y2="51.78"/><line class="cls-4" x1="68.61" y1="31.57" x2="74.78" y2="36.45"/><polygon class="cls-5" points="35.91 20.83 30.79 17.08 32.13 13 36.43 14.99 44.64 3.49 47.06 5.21 35.91 20.83"/><path class="cls-5" d="M50.65,39.57c2.82-1.44,11.29-10,1.73-18.86l4.95-6.94-2.59-2.58L46.55,22.65l2.22,1.58A15.58,15.58,0,0,1,51.53,29c1.42,3.68-6.37,9.76-6.37,9.76l6.15,16.53,4.35-2.91Z"/><g class="cls-10"><path class="cls-9" d="M48.16,21.28l-1,.08-.63,1.29,2.22,1.58A15.58,15.58,0,0,1,51.53,29c1.42,3.68-6.37,9.76-6.37,9.76l6.1,16.38.32,0,2-1.4L48.06,39.28a11.55,11.55,0,0,0,6-8.47C54.67,26.69,53.1,23.12,48.16,21.28Z"/></g><path class="cls-4" d="M61,26.76a4.45,4.45,0,0,1-.13,1.85"/><polygon class="cls-11" points="6.61 66.26 11.55 66.99 23.66 50.03 18.72 49.3 6.61 66.26"/><polygon class="cls-12" points="6.61 66.26 11.55 66.99 23.66 50.03 18.72 49.3 6.61 66.26"/><line class="cls-4" x1="15.98" y1="51.29" x2="19.45" y2="56.91"/><path class="cls-4" d="M10.55,59.31c1.25.31,2.49.69,3.76,1a10.64,10.64,0,0,0,3.85.29"/><path class="cls-4" d="M9,61.49a24,24,0,0,0,4.93,5.18"/><rect class="cls-2" x="32.45" y="13.19" width="24.11" height="7.5" transform="translate(4.86 43.31) rotate(-54.47)"/><rect class="cls-13" x="32.45" y="13.19" width="24.11" height="7.5" transform="translate(4.86 43.31) rotate(-54.47)"/><rect class="cls-5" x="29.87" y="12.95" width="26" height="4.88" transform="translate(5.44 41.34) rotate(-54.48)"/><path class="cls-4" d="M52,6.66a15,15,0,0,1-2.11,3.2c-.79,1-1.61,2-2.37,3"/><path class="cls-4" d="M38.42,25.61a14,14,0,0,0-.87,1.62"/><g class="cls-14"><path class="cls-15" d="M48.54,5a23.06,23.06,0,0,1-1.4,3.64c-.24.52-.5,1.08-.82,1.65s-.62,1.19-1,1.79-.71,1.25-1.14,1.86L42.92,15.8l-1.36,1.8c-.44.6-.94,1.14-1.38,1.68s-.93,1-1.37,1.53-.89.92-1.3,1.31a23.35,23.35,0,0,1-3,2.51l-.16-.12,6.92-9.87c3.54-4.88,7.09-9.75,7.09-9.75Z"/></g><g class="cls-10"><polygon class="cls-9" points="32.21 15.19 37.35 17.97 35.75 19.9 31.78 17.22 32.21 15.19"/></g></g></g></g></g></g></g></svg>