<svg xmlns="http://www.w3.org/2000/svg" viewBox="0 0 96.08 104.17"><defs><style>.cls-1{isolation:isolate;}.cls-11,.cls-14,.cls-2,.cls-5,.cls-7,.cls-9{fill:none;stroke:#000;}.cls-2,.cls-7{stroke-linecap:round;stroke-linejoin:round;}.cls-14,.cls-2{stroke-width:5px;}.cls-3{fill:#724a1a;}.cls-4{fill:#362216;}.cls-11,.cls-14,.cls-5,.cls-9{stroke-miterlimit:10;}.cls-5{stroke-width:3px;}.cls-6{fill:#c7c29d;}.cls-8{opacity:0.4;}.cls-9{stroke-width:5.5px;}.cls-10{fill:#545452;}.cls-11{stroke-width:2.2px;}.cls-12{fill:#c1c2bc;}.cls-13{mix-blend-mode:soft-light;}.cls-15{fill:#454542;}.cls-16{fill:#73736f;}.cls-17{fill:#fff;}</style></defs><title>barbarian axe</title><g class="cls-1"><g id="Calque_2" data-name="Calque 2"><g id="BARBARIAN"><g id="BARBARIAN-2" data-name="BARBARIAN"><g id="L_ARM" data-name="L ARM"><g id="AXE"><rect class="cls-2" x="-1.53" y="73.51" width="46.06" height="5.56" transform="translate(-53.27 49.98) rotate(-54.88)"/><rect class="cls-3" x="-1.53" y="73.51" width="46.06" height="5.56" transform="translate(-53.27 49.98) rotate(-54.88)"/><polygon class="cls-2" points="2.5 96.39 3.95 97.41 2.73 99.14 6.33 101.67 7.55 99.94 9.01 100.96 12.18 96.45 5.67 91.88 2.5 96.39"/><polygon class="cls-4" points="2.5 96.39 3.95 97.41 2.73 99.14 6.33 101.67 7.55 99.94 9.01 100.96 12.18 96.45 5.67 91.88 2.5 96.39"/><polygon class="cls-5" points="27.77 72.22 22.21 70.44 12.17 84.71 15.52 89.62 27.77 72.22"/><polygon class="cls-6" points="27.77 72.22 22.21 70.44 12.17 84.71 15.52 89.62 27.77 72.22"/><line class="cls-7" x1="17.66" y1="75.72" x2="25.23" y2="77.4"/><line class="cls-7" x1="13.81" y1="80.56" x2="20.87" y2="83.79"/><rect class="cls-8" x="1.7" y="75.67" width="42.32" height="3.59" transform="translate(-53.66 51.6) rotate(-54.88)"/><polygon class="cls-8" points="9.35 93.43 13.99 96.69 9.97 102.4 7.53 100.69 5.51 103.56 3.31 102.02 9.35 93.43"/><path class="cls-7" d="M29.92,64.45a42.78,42.78,0,0,1,3.63-5.78"/><line class="cls-7" x1="7.07" y1="96.31" x2="8.97" y2="93.62"/><path class="cls-9" d="M47.75,52.24,72,17.77c6.63,3.27,14.87-.16,21.2-3.69l.12,16.78-10,24.43L66.12,70.89,49,77C52.64,67.8,53.12,59.37,47.75,52.24Z"/><path class="cls-10" d="M47.75,52.24,72,17.77c6.63,3.27,14.87-.16,21.2-3.69l.12,16.78-10,24.43L66.12,70.89,49,77C52.64,67.8,53.12,59.37,47.75,52.24Z"/><path class="cls-11" d="M51.75,64.4A34.63,34.63,0,0,1,49,77l17.14-6.07,17.17-15.6,10-24.43L93.2,14.08a45.89,45.89,0,0,1-9.37,4.09C85.58,34.42,65.34,60.9,51.75,64.4Z"/><path class="cls-12" d="M51.75,64.4A34.63,34.63,0,0,1,49,77l17.14-6.07,17.17-15.6,10-24.43L93.2,14.08a45.89,45.89,0,0,1-9.37,4.09C85.58,34.42,65.34,60.9,51.75,64.4Z"/><polygon points="73.58 65.86 68.73 58.71 75.09 64.55 73.58 65.86"/><polygon points="75.89 63.49 73.2 59.54 77.27 62.05 75.89 63.49"/><polygon points="86.14 50.5 82.5 47.72 86.98 48.68 86.14 50.5"/><polygon points="88.71 44.23 85.13 40.41 90.37 40.59 88.71 44.23"/><polygon points="93.81 24.6 87.67 22.64 94.03 21.61 93.81 24.6"/><polygon points="94.07 27.33 89.31 25.7 94.33 25.35 94.07 27.33"/><polygon points="57.88 74.5 58.36 70.56 60.78 73.7 57.88 74.5"/><path class="cls-8" d="M79.25,17.8S58.91,46.29,56.71,51.16s5.45,16.2,11.91,18.92c-7.2,5.5-14.71,7.14-22.18,9.15C51.87,68.62,51.5,61.38,48.14,54l25.6-36.4Z"/><path class="cls-7" d="M57,51.2c.9-2.71,2.63-5,3.95-7.5"/><path class="cls-7" d="M80,30.76a18.93,18.93,0,0,1,3.17,1.45"/><g class="cls-13"><path class="cls-12" d="M50.83,78.06C55.16,68,55.25,58.64,49.56,52l-1.42,2c3.36,7.38,3.73,14.62-1.7,25.23C47.9,78.84,49.37,78.46,50.83,78.06Z"/></g><rect class="cls-2" x="31.67" y="47.6" width="12.46" height="10.75" transform="translate(-27.24 53.5) rotate(-54.88)"/><rect class="cls-4" x="31.67" y="47.6" width="12.46" height="10.75" transform="translate(-27.24 53.5) rotate(-54.88)"/><rect class="cls-2" x="61.41" y="5.31" width="12.45" height="10.75" transform="translate(19.99 59.86) rotate(-54.88)"/><rect class="cls-4" x="61.41" y="5.31" width="12.45" height="10.75" transform="translate(19.99 59.86) rotate(-54.88)"/><rect class="cls-2" x="29.47" y="22.81" width="48.54" height="15.28" transform="translate(-2.09 56.89) rotate(-54.88)"/><rect class="cls-3" x="29.47" y="22.81" width="48.54" height="15.28" transform="translate(-2.09 56.89) rotate(-54.88)"/><line class="cls-7" x1="31.46" y1="51.26" x2="41.46" y2="58.29"/><rect class="cls-8" x="34.45" y="53.54" width="8.75" height="6.25" transform="translate(-29.86 55.82) rotate(-54.87)"/><rect class="cls-8" x="69.7" y="6.07" width="6.5" height="5.75" transform="translate(23.67 63.47) rotate(-54.88)"/><rect class="cls-8" x="29.8" y="27.73" width="50.5" height="8.25" transform="translate(-2.68 58.56) rotate(-54.88)"/><path class="cls-7" d="M54.84,24.52c1.77-1.47,2.9-3.52,4.21-5.38"/><path class="cls-7" d="M46.61,36.57a11.88,11.88,0,0,1,1.44-1.79"/><path class="cls-7" d="M37.54,49.72c2.19-3.13,4.09-6.45,6.29-9.58"/><path class="cls-7" d="M67.84,21.2a8.11,8.11,0,0,1,1.68-2.4"/><path class="cls-14" d="M41.76,34.24a10.15,10.15,0,0,0-4.47-5.36c3.93-1.53,5-1.72,8.15.13A5.57,5.57,0,0,1,41.76,34.24Z"/><path class="cls-15" d="M41.76,34.24a10.15,10.15,0,0,0-4.47-5.36c3.93-1.53,5-1.72,8.15.13A5.57,5.57,0,0,1,41.76,34.24Z"/><path class="cls-14" d="M51.1,22.55a10.21,10.21,0,0,0-4.47-5.37c3.93-1.52,5-1.71,8.15.14A5.58,5.58,0,0,1,51.1,22.55Z"/><path class="cls-15" d="M51.1,22.55a10.21,10.21,0,0,0-4.47-5.37c3.93-1.52,5-1.71,8.15.14A5.58,5.58,0,0,1,51.1,22.55Z"/><path class="cls-9" d="M36.85,40c-2.61-2.79-6.49-4.1-9.94-5.43,4.06-2,8.89-2.13,14-.55A7,7,0,0,1,36.85,40Z"/><path class="cls-16" d="M36.85,40c-2.61-2.79-6.49-4.1-9.94-5.43,4.06-2,8.89-2.13,14-.55A7,7,0,0,1,36.85,40Z"/><path class="cls-9" d="M45.68,27.4a19.71,19.71,0,0,0-7.5-5.12c4.6-2.09,7.9-1,11.18-.11A5.58,5.58,0,0,1,45.68,27.4Z"/><path class="cls-16" d="M45.68,27.4a19.71,19.71,0,0,0-7.5-5.12c4.6-2.09,7.9-1,11.18-.11A5.58,5.58,0,0,1,45.68,27.4Z"/><path class="cls-9" d="M54.67,15.43A14.75,14.75,0,0,0,49,11.12c2.83-1.13,6.54-2,9.35-.92A8,8,0,0,1,54.67,15.43Z"/><path class="cls-16" d="M54.67,15.43A14.75,14.75,0,0,0,49,11.12c2.83-1.13,6.54-2,9.35-.92A8,8,0,0,1,54.67,15.43Z"/><path class="cls-8" d="M40.76,38.37c-4.6-2.73-11.25-4.15-16-3.5,4.6,1.89,8.93,3.5,12,6.59Z"/><path class="cls-8" d="M49.11,26.21c-5.32-3.42-8.7-4.29-13.3-3.55,4.6,1.89,7,2.94,10,6Z"/><path class="cls-8" d="M57.86,14.63c-4.61-3-7.41-4-11.7-3,4,1.64,6,2.56,8.68,5.23Z"/><path class="cls-17" d="M55.86,10.16c-1.38-.17-3.69.29-2.38.48S57.59,10.37,55.86,10.16Z"/><path class="cls-17" d="M48,22.4a18.62,18.62,0,0,0-3.18-.46c-.3,0,.62.65,1.53.81S49,22.84,48,22.4Z"/><path class="cls-17" d="M39.54,34.06c-.23-.08-2.94-.72-2.93-.5s.37.69,1.67,1.06S40.68,34.43,39.54,34.06Z"/></g></g></g></g></g></g></svg>