<svg xmlns="http://www.w3.org/2000/svg" viewBox="0 0 58.37 126.45"><defs><style>.cls-1{isolation:isolate;}.cls-2,.cls-4,.cls-6{fill:none;stroke-linecap:round;stroke-linejoin:round;}.cls-2,.cls-6{stroke:#000;}.cls-2{stroke-width:5px;}.cls-3{fill:#573c2b;}.cls-4{stroke:#fff;stroke-width:0.75px;}.cls-5{fill:#9e6946;}.cls-7{mix-blend-mode:multiply;}.cls-8{fill:#b39160;}</style></defs><title>bow</title><g class="cls-1"><g id="Calque_2" data-name="Calque 2"><g id="ARCHER"><g id="ARCHER-2" data-name="ARCHER"><g id="BOW"><rect class="cls-2" x="50.14" y="51.98" width="2.92" height="22.4"/><rect class="cls-3" x="50.14" y="51.98" width="2.92" height="22.4"/><polyline class="cls-4" points="29 8.33 0.38 64.8 29 121.27"/><path class="cls-2" d="M48.08,52.1c0-10.79-14.27-24.19-17.89-32.39-3.81-8.65,1.35-15.86,3-17.21l5,3.93L36.3,13.25l-4.11-1.74s-.55,4.57,3,10c7.27,11.25,18.92,18.92,19.77,30.68Z"/><path class="cls-5" d="M48.08,52.1c0-10.79-14.27-24.19-17.89-32.39-3.81-8.65,1.35-15.86,3-17.21l5,3.93L36.3,13.25l-4.11-1.74s-.55,4.57,3,10c7.27,11.25,18.92,18.92,19.77,30.68Z"/><path class="cls-6" d="M33.61,13.19,31.55,11.4A10.47,10.47,0,0,1,33.88,7,2.43,2.43,0,0,1,35,9.2"/><rect class="cls-2" x="46.5" y="49.91" width="9.37" height="2.62"/><rect class="cls-5" x="46.5" y="49.91" width="9.37" height="2.62"/><g class="cls-7"><path class="cls-8" d="M51,48.49s-.24-3.87-4.2-8.73c-14.45-17.71-16.45-23-16.57-27s1.51-7.72,3.34-8.15,6.11,1.56,6.11,1.56S34.21.93,33,.94s-5.78,3.89-5.61,11.61c.19,8.75,9.45,18.09,15,27a24.79,24.79,0,0,1,3.49,8.35Z"/></g><path class="cls-6" d="M42.3,28a25.85,25.85,0,0,0-1.37,4.12"/><path class="cls-6" d="M46.39,39.19A39.5,39.5,0,0,1,51,48"/><path class="cls-6" d="M36.47,14.45c-.36-1-1-1.9-1.37-2.94"/><path class="cls-6" d="M48.22,51.22a9.09,9.09,0,0,1-.44,2.07"/><path class="cls-2" d="M48.08,74.35c0,10.8-14.27,24.19-17.89,32.4-3.81,8.65,1.35,15.85,3,17.2l5-3.93-1.93-6.81L32.19,115s-.55-4.58,3-10C42.43,93.67,54.08,86,54.93,74.23Z"/><path class="cls-5" d="M48.08,74.35c0,10.8-14.27,24.19-17.89,32.4-3.81,8.65,1.35,15.85,3,17.2l5-3.93-1.93-6.81L32.19,115s-.55-4.58,3-10C42.43,93.67,54.08,86,54.93,74.23Z"/><path class="cls-6" d="M33.61,113.26l-2.06,1.79a10.47,10.47,0,0,0,2.33,4.4,2.43,2.43,0,0,0,1.1-2.2"/><rect class="cls-2" x="46.5" y="73.81" width="9.37" height="2.62"/><rect class="cls-5" x="46.5" y="73.81" width="9.37" height="2.62"/><g class="cls-7"><path class="cls-8" d="M51,77.43s-.24,3.87-4.2,8.72c-14.45,17.71-16.45,23-16.57,27s1.51,7.72,3.34,8.16,6.11-1.56,6.11-1.56S34.21,125,33,125s-5.78-3.89-5.61-11.61c.19-8.76,9.45-18.1,15-27A24.71,24.71,0,0,0,45.91,78Z"/></g><path class="cls-6" d="M50.91,72.58c.28.71.41,1.47.68,2.18"/><path class="cls-6" d="M51,85.61c-1.2.57-2.57.59-3.78,1.13"/><path class="cls-6" d="M39.66,95.31a56.08,56.08,0,0,0-5.26,7.09"/></g></g></g></g></g></svg>