<?xml version="1.0" encoding="UTF-8" standalone="no"?>
<svg
   xmlns:dc="http://purl.org/dc/elements/1.1/"
   xmlns:cc="http://creativecommons.org/ns#"
   xmlns:rdf="http://www.w3.org/1999/02/22-rdf-syntax-ns#"
   xmlns:svg="http://www.w3.org/2000/svg"
   xmlns="http://www.w3.org/2000/svg"
   xmlns:sodipodi="http://sodipodi.sourceforge.net/DTD/sodipodi-0.dtd"
   xmlns:inkscape="http://www.inkscape.org/namespaces/inkscape"
   viewBox="0 0 85.29 85.28"
   version="1.1"
   id="svg59"
   sodipodi:docname="chakram.svg"
   inkscape:version="1.0.1 (3bc2e813f5, 2020-09-07)">
  <metadata
     id="metadata63">
    <rdf:RDF>
      <cc:Work
         rdf:about="">
        <dc:format>image/svg+xml</dc:format>
        <dc:type
           rdf:resource="http://purl.org/dc/dcmitype/StillImage" />
        <dc:title>chakram</dc:title>
      </cc:Work>
    </rdf:RDF>
  </metadata>
  <sodipodi:namedview
     pagecolor="#ffffff"
     bordercolor="#666666"
     borderopacity="1"
     objecttolerance="10"
     gridtolerance="10"
     guidetolerance="10"
     inkscape:pageopacity="0"
     inkscape:pageshadow="2"
     inkscape:window-width="1920"
     inkscape:window-height="1017"
     id="namedview61"
     showgrid="false"
     showborder="false"
     inkscape:snap-global="false"
     inkscape:zoom="2.4259168"
     inkscape:cx="-330.71239"
     inkscape:cy="-54.545707"
     inkscape:window-x="-8"
     inkscape:window-y="-8"
     inkscape:window-maximized="1"
     inkscape:current-layer="layer2" />
  <defs
     id="defs4">
    <inkscape:path-effect
       effect="powerstroke"
       id="path-effect1727"
       is_visible="true"
       lpeversion="1"
       offset_points="0,10"
       sort_points="true"
       interpolator_type="CubicBezierJohan"
       interpolator_beta="0.2"
       start_linecap_type="zerowidth"
       linejoin_type="extrp_arc"
       miter_limit="4"
       scale_width="1"
       end_linecap_type="zerowidth" />
    <inkscape:path-effect
       effect="bend_path"
       id="path-effect1721"
       is_visible="true"
       lpeversion="1"
       bendpath="m -821.95728,-211.87866 145.92421,-32.97722 78.32091,75.02318 c 0,0 -65.13002,83.26749 -68.42774,85.740782 -3.29772,2.473291 -190.44346,9.068736 -190.44346,9.068736 l 28.03063,-103.878248 z"
       prop_scale="1"
       scale_y_rel="false"
       vertical="false"
       hide_knot="false" />
    <inkscape:path-effect
       effect="bend_path"
       id="path-effect1663"
       is_visible="true"
       lpeversion="1"
       bendpath="m -821.95728,-211.87866 145.92421,-32.97722 78.32091,75.02318 c 0,0 -65.13002,83.26749 -68.42774,85.740782 -3.29772,2.473291 -190.44346,9.068736 -190.44346,9.068736 l 28.03063,-103.878248 z"
       prop_scale="1"
       scale_y_rel="false"
       vertical="false"
       hide_knot="false" />
    <inkscape:path-effect
       effect="bend_path"
       id="path-effect1543"
       is_visible="true"
       lpeversion="1"
       bendpath="m -787.3312,-294.32171 145.09978,-65.95445 c 0,0 145.09978,41.22153 150.04637,42.04596 4.94658,0.82443 62.65672,151.69522 64.30558,158.29067 1.64886,6.59544 -123.66458,91.511792 -135.20661,95.633945 -11.54203,4.122153 -151.69523,-15.664181 -151.69523,-15.664181 0,0 -84.09191,-81.618624 -84.09191,-90.687364 0,-9.06873 11.54202,-123.66458 11.54202,-123.66458 z"
       prop_scale="1"
       scale_y_rel="false"
       vertical="false"
       hide_knot="false" />
    <inkscape:path-effect
       effect="bend_path"
       id="path-effect1485"
       is_visible="true"
       lpeversion="1"
       bendpath="m -787.3312,-294.32171 145.09978,-65.95445 c 0,0 145.09978,41.22153 150.04637,42.04596 4.94658,0.82443 62.65672,151.69522 64.30558,158.29067 1.64886,6.59544 -123.66458,91.511792 -135.20661,95.633945 -11.54203,4.122153 -151.69523,-15.664181 -151.69523,-15.664181 0,0 -84.09191,-81.618624 -84.09191,-90.687364 0,-9.06873 11.54202,-123.66458 11.54202,-123.66458 z"
       prop_scale="1"
       scale_y_rel="false"
       vertical="false"
       hide_knot="false" />
    <inkscape:path-effect
       effect="bend_path"
       id="path-effect1363"
       is_visible="true"
       lpeversion="1"
       bendpath="m -783.20904,-261.34449 120.36686,56.06128 15.66418,-115.42028 z"
       prop_scale="1"
       scale_y_rel="false"
       vertical="false"
       hide_knot="false" />
    <inkscape:path-effect
       effect="bend_path"
       id="path-effect1305"
       is_visible="true"
       lpeversion="1"
       bendpath="m -783.20904,-261.34449 120.36686,56.06128 15.66418,-115.42028 z"
       prop_scale="1"
       scale_y_rel="false"
       vertical="false"
       hide_knot="false" />
    <inkscape:path-effect
       effect="bend_path"
       id="path-effect1185"
       is_visible="true"
       lpeversion="1"
       bendpath="m -291.43621,-145.512 5.77102,48.229192 -7.00766,27.206209 16.48861,11.129813 7.00766,11.954243 17.31304,-48.641403 -11.54203,-57.710144 -39.16045,-22.67184 z"
       prop_scale="1"
       scale_y_rel="false"
       vertical="false"
       hide_knot="false" />
    <inkscape:path-effect
       effect="bend_path"
       id="path-effect1127"
       is_visible="true"
       lpeversion="1"
       bendpath="m -291.43621,-145.512 5.77102,48.229192 -7.00766,27.206209 16.48861,11.129813 7.00766,11.954243 17.31304,-48.641403 -11.54203,-57.710144 -39.16045,-22.67184 z"
       prop_scale="1"
       scale_y_rel="false"
       vertical="false"
       hide_knot="false" />
    <style
       id="style2">.cls-1{isolation:isolate;}.cls-10,.cls-2,.cls-6,.cls-8{fill:none;stroke:#000;}.cls-10,.cls-2,.cls-6{stroke-linecap:round;stroke-linejoin:round;}.cls-2{stroke-width:5px;}.cls-3{fill:#573c2b;}.cls-4{mix-blend-mode:multiply;}.cls-5{fill:#bf8eab;}.cls-6{stroke-width:5.5px;}.cls-7{fill:#c1c2bc;}.cls-8{stroke-miterlimit:10;stroke-width:2.2px;}.cls-9{fill:#73736f;}.cls-11{mix-blend-mode:soft-light;}</style>
  </defs>
  <title
     id="title6">chakram</title>
  <g
     inkscape:groupmode="layer"
     id="layer1"
     inkscape:label="background"
     sodipodi:insensitive="true">
    <rect
       style="fill:#61ce53;fill-opacity:1;stroke-width:20;paint-order:markers stroke fill"
       id="rect888"
       width="671.57043"
       height="580.6286"
       x="-687.59589"
       y="-333.62772" />
  </g>
  <g
     inkscape:groupmode="layer"
     id="layer2"
     inkscape:label="Layer 1"
     style="display:inline;opacity:0.998">
    <g
       id="fx_slash1"
       transform="translate(58.122355,-7.8320904)">
      <path
         id="ellipse1810"
         style="fill:#ffffff;fill-opacity:1;stroke:none;stroke-width:0;stroke-miterlimit:4;stroke-dasharray:none;paint-order:markers stroke fill"
         d="m -331.11719,-163.49805 a 74.774345,49.464869 58.025399 0 0 -2.66601,0.084 74.774345,49.464869 58.025399 0 0 -5.77149,0.81054 74.774345,49.464869 58.025399 0 1 52.65821,60.6543 74.774345,49.464869 58.025399 0 1 4.57421,34.308595 37.894249,125.10279 0 0 1 1.11719,-0.05664 37.894249,125.10279 0 0 1 22.14063,23.574219 74.774345,49.464869 58.025399 0 0 1.31445,-54.140625 74.774345,49.464869 58.025399 0 0 -61.60742,-63.701169 74.774345,49.464869 58.025399 0 0 -11.75977,-1.53321 z" />
      <path
         id="path1825"
         style="fill:#9a9a9a;fill-opacity:1;stroke:none;stroke-width:0;stroke-miterlimit:4;stroke-dasharray:none;paint-order:markers stroke fill"
         d="m -330.94727,-158.80664 c 2.91956,0.75047 8.3125,2.72461 8.3125,2.72461 16.31401,8.51311 34.37773,33.63757 40.94336,57.302733 3.89494,13.650715 3.18718,23.852438 1.78907,31.15625 a 37.894249,125.10279 0 0 1 8.35742,4.058594 c 1.33837,-10.548056 -0.0105,-23.087548 -3.45313,-35.496094 -7.51468,-27.083733 -28.27455,-54.691233 -47.23633,-58.357423 -3.91444,-0.75685 -3.28907,-0.77516 -5.98242,-1.08008 z" />
      <path
         id="path1852"
         style="fill:#9a9a9a;fill-opacity:1;stroke:none;stroke-width:0;stroke-miterlimit:4;stroke-dasharray:none;paint-order:markers stroke fill"
         d="m -272.32812,-105.30664 a 70.162669,52.716112 71.611208 0 1 4.33398,16.062499 70.162669,52.716112 71.611208 0 1 0.041,29.447266 37.894249,125.10279 0 0 1 6.9082,11.271484 70.162669,52.716112 71.611208 0 0 0.0391,-0.257812 70.162669,52.716112 71.611208 0 0 0.0977,-0.683594 70.162669,52.716112 71.611208 0 0 0.0898,-0.685547 70.162669,52.716112 71.611208 0 1 0,-0.002 70.162669,52.716112 71.611208 0 0 0.0859,-0.6875 70.162669,52.716112 71.611208 0 0 0.0781,-0.689453 70.162669,52.716112 71.611208 0 0 0.0723,-0.693359 70.162669,52.716112 71.611208 0 0 0.0644,-0.695313 70.162669,52.716112 71.611208 0 0 0.0606,-0.697266 70.162669,52.716112 71.611208 0 0 0.0547,-0.699218 70.162669,52.716112 71.611208 0 0 0.0469,-0.701172 70.162669,52.716112 71.611208 0 0 0.043,-0.703125 70.162669,52.716112 71.611208 0 0 0.0352,-0.705078 70.162669,52.716112 71.611208 0 0 0.0293,-0.707031 70.162669,52.716112 71.611208 0 0 0.0234,-0.708985 70.162669,52.716112 71.611208 0 0 0.0176,-0.710937 70.162669,52.716112 71.611208 0 0 0.0117,-0.710938 70.162669,52.716112 71.611208 0 0 0.006,-0.71289 70.162669,52.716112 71.611208 0 0 -0.002,-0.714844 70.162669,52.716112 71.611208 0 0 -0.006,-0.714844 70.162669,52.716112 71.611208 0 0 -0.0137,-0.716797 70.162669,52.716112 71.611208 0 0 -0.0195,-0.716797 70.162669,52.716112 71.611208 0 0 -0.0254,-0.71875 70.162669,52.716112 71.611208 0 0 -0.0312,-0.720703 70.162669,52.716112 71.611208 0 0 -0.0371,-0.720703 70.162669,52.716112 71.611208 0 0 -0.0449,-0.720703 70.162669,52.716112 71.611208 0 0 -0.0488,-0.722656 70.162669,52.716112 71.611208 0 0 -0.0566,-0.722657 70.162669,52.716112 71.611208 0 0 -0.0606,-0.722656 70.162669,52.716112 71.611208 0 0 -0.0684,-0.724609 70.162669,52.716112 71.611208 0 0 -0.0742,-0.72461 70.162669,52.716112 71.611208 0 0 -0.0781,-0.722656 70.162669,52.716112 71.611208 0 0 -0.0879,-0.724609 70.162669,52.716112 71.611208 0 0 -0.0918,-0.72461 70.162669,52.716112 71.611208 0 1 0,-0.002 70.162669,52.716112 71.611208 0 0 -0.0977,-0.724609 70.162669,52.716112 71.611208 0 0 -0.10352,-0.72461 70.162669,52.716112 71.611208 0 0 -0.11133,-0.724609 70.162669,52.716112 71.611208 0 0 -0.11523,-0.724609 70.162669,52.716112 71.611208 0 0 -0.1211,-0.722656 70.162669,52.716112 71.611208 0 0 -0.0391,-0.226563 70.162669,52.716112 71.611208 0 0 -0.13086,-0.722656 70.162669,52.716112 71.611208 0 0 -0.13476,-0.722657 70.162669,52.716112 71.611208 0 0 -0.14258,-0.722656 70.162669,52.716112 71.611208 0 0 -0.14648,-0.722656 70.162669,52.716112 71.611208 0 0 -0.1543,-0.720703 70.162669,52.716112 71.611208 0 0 -0.1582,-0.720703 70.162669,52.716112 71.611208 0 0 -0.16602,-0.720703 70.162669,52.716112 71.611208 0 0 -0.16992,-0.71875 70.162669,52.716112 71.611208 0 0 -0.17774,-0.716797 70.162669,52.716112 71.611208 0 0 -0.18359,-0.716797 70.162669,52.716112 71.611208 0 0 -0.1875,-0.716797 70.162669,52.716112 71.611208 0 0 -0.19336,-0.712891 70.162669,52.716112 71.611208 0 0 -0.19922,-0.71289 70.162669,52.716112 71.611208 0 1 0,-0.002 70.162669,52.716112 71.611208 0 0 -0.20508,-0.710938 70.162669,52.716112 71.611208 0 0 -0.21289,-0.708984 70.162669,52.716112 71.611208 0 0 -0.21679,-0.708985 70.162669,52.716112 71.611208 0 0 -0.22071,-0.707031 70.162669,52.716112 71.611208 0 0 -0.22851,-0.703125 70.162669,52.716112 71.611208 0 0 -0.23438,-0.703125 70.162669,52.716112 71.611208 0 1 0,-0.002 70.162669,52.716112 71.611208 0 0 -0.24023,-0.701172 70.162669,52.716112 71.611208 0 0 -0.24414,-0.699219 70.162669,52.716112 71.611208 0 0 -0.25,-0.697265 70.162669,52.716112 71.611208 0 0 -0.25586,-0.69336 70.162669,52.716112 71.611208 0 0 -0.26172,-0.693359 70.162669,52.716112 71.611208 0 0 -0.26563,-0.691406 70.162669,52.716112 71.611208 0 0 -0.27343,-0.6875 70.162669,52.716112 71.611208 0 0 -0.27735,-0.685547 70.162669,52.716112 71.611208 0 0 -0.2832,-0.683594 70.162669,52.716112 71.611208 0 0 -0.28906,-0.681641 70.162669,52.716112 71.611208 0 0 -0.29297,-0.677734 70.162669,52.716112 71.611208 0 0 -0.29883,-0.675781 70.162669,52.716112 71.611208 0 0 -0.30273,-0.671875 70.162669,52.716112 71.611208 0 0 -0.3086,-0.669922 70.162669,52.716112 71.611208 0 0 -0.31445,-0.666016 70.162669,52.716112 71.611208 0 0 -0.32031,-0.664062 70.162669,52.716112 71.611208 0 0 -0.32422,-0.660154 70.162669,52.716112 71.611208 0 0 -0.32813,-0.65821 70.162669,52.716112 71.611208 0 0 -0.33398,-0.65234 70.162669,52.716112 71.611208 0 1 -0.004,-0.002 70.162669,52.716112 71.611208 0 0 -0.33789,-0.65039 70.162669,52.716112 71.611208 0 0 -0.34375,-0.64649 70.162669,52.716112 71.611208 0 0 -0.34961,-0.64453 70.162669,52.716112 71.611208 0 0 -0.35351,-0.63867 70.162669,52.716112 71.611208 0 0 -0.35938,-0.63672 70.162669,52.716112 71.611208 0 0 -0.1289,-0.22461 z" />
    </g>
    <path
       id="fx_slash2"
       style="fill:#ffffff;fill-opacity:1;stroke:none;stroke-width:0;stroke-miterlimit:4;stroke-dasharray:none;paint-order:markers stroke fill"
       d="m -314.67392,-126.9807 a 70.162669,52.716112 50.2206 0 1 9.89401,13.37525 70.162669,52.716112 50.2206 0 1 11.66968,33.452457 l 10.39329,5.57792 a 70.162669,52.716112 50.2206 0 0 -0.10058,-0.55213 70.162669,52.716112 50.2206 0 0 -0.12586,-0.67019 70.162669,52.716112 50.2206 0 0 -0.13377,-0.67127 70.162669,52.716112 50.2206 0 0 -0.13936,-0.6691 70.162669,52.716112 50.2206 0 1 -4.2e-4,-0.002 70.162669,52.716112 50.2206 0 0 -0.14578,-0.67077 70.162669,52.716112 50.2206 0 0 -0.15363,-0.66979 70.162669,52.716112 50.2206 0 0 -0.15966,-0.67163 70.162669,52.716112 50.2206 0 0 -0.16558,-0.6714 70.162669,52.716112 50.2206 0 1 -4.2e-4,-0.002 70.162669,52.716112 50.2206 0 0 -0.17142,-0.67122 70.162669,52.716112 50.2206 0 0 -0.1792,-0.67026 70.162669,52.716112 50.2206 0 0 -0.18538,-0.67204 70.162669,52.716112 50.2206 0 0 -0.19308,-0.67112 70.162669,52.716112 50.2206 0 0 -0.19714,-0.67163 70.162669,52.716112 50.2206 0 0 -0.20483,-0.67071 70.162669,52.716112 50.2206 0 0 -0.21263,-0.66976 70.162669,52.716112 50.2206 0 0 -0.21668,-0.67027 70.162669,52.716112 50.2206 0 0 -0.22439,-0.66934 70.162669,52.716112 50.2206 0 0 -0.23012,-0.6692 70.162669,52.716112 50.2206 0 0 -0.23605,-0.66897 70.162669,52.716112 50.2206 0 0 -0.24375,-0.66806 70.162669,52.716112 50.2206 0 0 -0.24738,-0.66663 70.162669,52.716112 50.2206 0 0 -0.25535,-0.66561 70.162669,52.716112 50.2206 0 0 -0.26258,-0.66487 70.162669,52.716112 50.2206 0 0 -0.26631,-0.66342 70.162669,52.716112 50.2206 0 0 -0.274,-0.66249 70.162669,52.716112 50.2206 0 0 -0.27941,-0.66039 70.162669,52.716112 50.2206 0 0 -0.28579,-0.65997 70.162669,52.716112 50.2206 0 0 -0.29126,-0.65994 70.162669,52.716112 50.2206 0 0 -0.2987,-0.65701 70.162669,52.716112 50.2206 0 0 -0.30402,-0.65494 70.162669,52.716112 50.2206 0 0 -0.30984,-0.65475 70.162669,52.716112 50.2206 0 0 -0.31535,-0.6526 70.162669,52.716112 50.2206 0 0 -0.32073,-0.65047 70.162669,52.716112 50.2206 0 0 -0.32667,-0.65026 70.162669,52.716112 50.2206 0 0 -0.33384,-0.64745 70.162669,52.716112 50.2206 0 0 -0.33713,-0.64407 70.162669,52.716112 50.2206 0 0 -0.34473,-0.64319 70.162669,52.716112 50.2206 0 0 -0.35023,-0.64103 70.162669,52.716112 50.2206 0 1 -4.3e-4,-0.002 70.162669,52.716112 50.2206 0 0 -0.35572,-0.638877 70.162669,52.716112 50.2206 0 0 -0.36116,-0.63673 70.162669,52.716112 50.2206 0 0 -0.36665,-0.6346 70.162669,52.716112 50.2206 0 0 -0.37206,-0.63248 70.162669,52.716112 50.2206 0 0 -0.37714,-0.6284 70.162669,52.716112 50.2206 0 0 -0.11913,-0.19665 70.162669,52.716112 50.2206 0 0 -0.3844,-0.62555 70.162669,52.716112 50.2206 0 0 -0.38987,-0.6234 70.162669,52.716112 50.2206 0 0 -0.39534,-0.62127 70.162669,52.716112 50.2206 0 0 -0.40076,-0.61915 70.162669,52.716112 50.2206 0 0 -0.40583,-0.61505 70.162669,52.716112 50.2206 0 0 -0.41128,-0.61292 70.162669,52.716112 50.2206 0 0 -0.41671,-0.61079 70.162669,52.716112 50.2206 0 0 -0.41996,-0.60743 70.162669,52.716112 50.2206 0 0 -0.42682,-0.60263 70.162669,52.716112 50.2206 0 0 -0.43226,-0.60051 70.162669,52.716112 50.2206 0 0 -0.43591,-0.59908 70.162669,52.716112 50.2206 0 0 -0.44054,-0.59307 70.162669,52.716112 50.2206 0 0 -0.44599,-0.59093 70.162669,52.716112 50.2206 0 1 -4.3e-4,-0.002 70.162669,52.716112 50.2206 0 0 -0.45101,-0.58687 70.162669,52.716112 50.2206 0 0 -0.45608,-0.58278 70.162669,52.716112 50.2206 0 0 -0.4597,-0.58136 70.162669,52.716112 50.2206 0 0 -0.46475,-0.57731 70.162669,52.716112 50.2206 0 0 -0.46938,-0.57128 70.162669,52.716112 50.2206 0 0 -0.47483,-0.56916 70.162669,52.716112 50.2206 0 1 -4.2e-4,-0.002 70.162669,52.716112 50.2206 0 0 -0.47805,-0.56579 70.162669,52.716112 50.2206 0 0 -0.48311,-0.56171 70.162669,52.716112 50.2206 0 0 -0.48812,-0.55765 70.162669,52.716112 50.2206 0 0 -0.49094,-0.55234 70.162669,52.716112 50.2206 0 0 -0.4964,-0.55022 70.162669,52.716112 50.2206 0 0 -0.49963,-0.54685 70.162669,52.716112 50.2206 0 0 -0.50425,-0.54084 70.162669,52.716112 50.2206 0 0 -0.50928,-0.53678 70.162669,52.716112 50.2206 0 0 -0.5125,-0.53341 70.162669,52.716112 50.2206 0 0 -0.51756,-0.52934 70.162669,52.716112 50.2206 0 0 -0.52037,-0.52405 70.162669,52.716112 50.2206 0 0 -0.52358,-0.52068 70.162669,52.716112 50.2206 0 0 -0.5282,-0.51468 70.162669,52.716112 50.2206 0 0 -0.53143,-0.51131 70.162669,52.716112 50.2206 0 0 -0.53606,-0.50532 70.162669,52.716112 50.2206 0 0 -0.53928,-0.50195 70.162669,52.716112 50.2206 0 0 -0.5439,-0.49595 70.162669,52.716112 50.2206 0 0 -0.54531,-0.49329 70.162669,52.716112 50.2206 0 0 -0.54951,-0.48535 70.162669,52.716112 50.2206 0 1 -0.003,-0.001 70.162669,52.716112 50.2206 0 0 -0.55274,-0.48199 70.162669,52.716112 50.2206 0 0 -0.55555,-0.47669 70.162669,52.716112 50.2206 0 0 -0.56058,-0.47263 70.162669,52.716112 50.2206 0 0 -0.563,-0.4654 70.162669,52.716112 50.2206 0 0 -0.5662,-0.46204 70.162669,52.716112 50.2206 0 0 -0.20228,-0.16198 z" />
    <g
       class="cls-1"
       id="g57"
       transform="translate(-548.79146,-53.949519)"
       style="isolation:isolate">
      <g
         id="Calque_2"
         data-name="Calque 2"
         transform="rotate(-7.0431647,49.859484,47.612992)"
         inkscape:transform-center-x="-28.68974"
         inkscape:transform-center-y="16.872934">
        <g
           id="ASSASIN">
          <g
             id="ASSASSIN">
            <g
               id="L_ARM"
               data-name="L ARM">
              <g
                 id="WEAPON">
                <path
                   class="cls-2"
                   d="M 39,13 38,6 A 34.53,34.53 0 0 0 6.56,44.85 l 7.05,-0.48 A 27.5,27.5 0 0 1 39,13 Z"
                   id="path8" />
                <path
                   class="cls-3"
                   d="M 39,13 38,6 A 34.53,34.53 0 0 0 6.56,44.85 l 7.05,-0.48 A 27.5,27.5 0 0 1 39,13 Z"
                   id="path10" />
                <g
                   class="cls-4"
                   id="g14">
                  <path
                     class="cls-5"
                     d="M 16.79,21.31 A 34.44,34.44 0 0 0 9.46,44.69 l 5.66,0.08 C 14.06,37.56 15.39,30.6 20.25,24.43 a 26.55,26.55 0 0 1 19.63,-10 L 38.59,8.59 a 34.33,34.33 0 0 0 -21.8,12.72 z"
                     id="path12" />
                </g>
                <path
                   class="cls-6"
                   d="M 67.34,11.3 A 39.8,39.8 0 0 0 33.53,3.81 L 36.8,15.14 A 28.13,28.13 0 1 1 14.51,42.61 L 2.89,39.29 a 39.9,39.9 0 1 0 64.45,-28 z"
                   id="path16" />
                <path
                   class="cls-7"
                   d="M 67.34,11.3 A 39.8,39.8 0 0 0 33.53,3.81 L 36.8,15.14 A 28.13,28.13 0 1 1 14.51,42.61 L 2.89,39.29 a 39.9,39.9 0 1 0 64.45,-28 z"
                   id="path18" />
                <path
                   class="cls-8"
                   d="M 63,17.71 A 32.18,32.18 0 0 0 35.8,11.65 l 1,3.49 A 28.13,28.13 0 1 1 14.51,42.61 l -3.59,-1 A 32.21,32.21 0 1 0 63,17.71 Z"
                   id="path20" />
                <path
                   class="cls-9"
                   d="M 63,17.71 A 32.18,32.18 0 0 0 35.8,11.65 l 1,3.49 A 28.13,28.13 0 1 1 14.51,42.61 l -3.59,-1 A 32.21,32.21 0 1 0 63,17.71 Z"
                   id="path22" />
                <g
                   class="cls-4"
                   id="g26">
                  <path
                     class="cls-10"
                     d="m 76,39.3 c 2.71,0 5.33,0.83 8,1.06"
                     id="path24" />
                </g>
                <g
                   class="cls-4"
                   id="g30">
                  <path
                     class="cls-10"
                     d="m 48.06,68.19 a 30.8,30.8 0 0 1 1.17,4.23"
                     id="path28" />
                </g>
                <g
                   class="cls-4"
                   id="g34">
                  <path
                     class="cls-10"
                     d="M 58.28,4.11 C 58.19,5.43 57.8,6.72 57.77,8.05"
                     id="path32" />
                </g>
                <g
                   class="cls-4"
                   id="g38">
                  <path
                     class="cls-10"
                     d="m 81,47.1 a 2.92,2.92 0 0 1 1.81,0.56"
                     id="path36" />
                </g>
                <g
                   class="cls-4"
                   id="g42">
                  <path
                     class="cls-10"
                     d="m 11.73,65.58 c -0.7,0.59 -1.33,1.25 -2,1.84"
                     id="path40" />
                </g>
                <g
                   class="cls-11"
                   id="g46">
                  <path
                     class="cls-7"
                     d="M 83.14,32.15 66,31.21 c 2.13,6.07 4,9.79 1.6,16.59 L 84.72,47.21 A 31.24,31.24 0 0 0 83.14,32.15 Z"
                     id="path44" />
                </g>
                <g
                   class="cls-11"
                   id="g50">
                  <path
                     class="cls-7"
                     d="m 64.84,55.35 16.73,4.29 A 33.32,33.32 0 0 1 71.91,73 l -17,-6.5 c 4.65,-2.92 8.33,-6.4 9.93,-11.15 z"
                     id="path48" />
                </g>
              </g>
            </g>
          </g>
        </g>
      </g>
    </g>
    <g
       class="cls-1"
       id="g1541"
       style="isolation:isolate"
       inkscape:path-effect="#path-effect1543"
       transform="translate(-379.65028,-72.962107)">
      <g
         id="g1539"
         data-name="Calque 2"
         transform="rotate(-7.0431647,49.859484,47.612992)"
         inkscape:transform-center-x="-28.68974"
         inkscape:transform-center-y="16.872934" />
    </g>
  </g>
</svg>
