<svg xmlns="http://www.w3.org/2000/svg" viewBox="0 0 44.54 91.07"><defs><style>.cls-1{isolation:isolate;}.cls-11,.cls-2,.cls-5,.cls-8{fill:none;stroke:#000;}.cls-2,.cls-5{stroke-miterlimit:10;}.cls-2{stroke-width:6px;}.cls-3{fill:#724a1a;}.cls-4{fill:#917a5d;}.cls-5{stroke-width:3px;}.cls-6{mix-blend-mode:multiply;}.cls-7{fill:#a39163;}.cls-11,.cls-8{stroke-linecap:round;stroke-linejoin:round;}.cls-9{mix-blend-mode:overlay;}.cls-10{fill:#edebe1;}.cls-11{stroke-width:5px;}.cls-12{fill:#e3c597;}.cls-13{fill:#9b8ab5;}</style></defs><title>evil staff</title><g class="cls-1"><g id="Calque_2" data-name="Calque 2"><g id="NECROMANCER"><g id="NECROMANCER-2" data-name="NECROMANCER"><g id="L_ARM" data-name="L ARM"><g id="SKULL_STAFF" data-name="SKULL STAFF"><g id="STAFF"><path class="cls-2" d="M3,87.37c-.1-.79,2.28-10.68,2.28-10.68l5.28-9.12L7.27,58.69,21.51,29.32l4.71,1.86L11.79,58.41l3.75,9.42L8.75,78s-3.66,8.53-4.38,9.44S3.1,88.17,3,87.37Z"/><path class="cls-3" d="M3,87.37c-.1-.79,2.28-10.68,2.28-10.68l5.28-9.12L7.27,58.69,21.51,29.32l4.71,1.86L11.79,58.41l3.75,9.42L8.75,78s-3.66,8.53-4.38,9.44S3.1,88.17,3,87.37Z"/><path class="cls-2" d="M20.91,25.26c-1,.74-2.34,3.35-1.83,4.93a12.63,12.63,0,0,0,7.78,3.29c1.73-.24,3.7-4.6,3.49-6.39C27.6,25.34,24.64,24.21,20.91,25.26Z"/><path class="cls-4" d="M20.91,25.26c-1,.74-2.34,3.35-1.83,4.93a12.63,12.63,0,0,0,7.78,3.29c1.73-.24,3.7-4.6,3.49-6.39C27.6,25.34,24.64,24.21,20.91,25.26Z"/><path class="cls-5" d="M16.41,67.73c-.15,1.45-1,2.54-1.88,2.46s-1.5-1.34-1.36-2.78,1-2.54,1.88-2.45S16.55,66.29,16.41,67.73Z"/><path class="cls-3" d="M16.41,67.73c-.15,1.45-1,2.54-1.88,2.46s-1.5-1.34-1.36-2.78,1-2.54,1.88-2.45S16.55,66.29,16.41,67.73Z"/><g class="cls-6"><path class="cls-7" d="M24.86,37.38l-4.13.21L10.32,58.13l2.85,9.28L6.68,77.55,3,89,1.48,87.17,3.7,76.37l5.1-8.72-3-9.47,13-25.82a17.77,17.77,0,0,0,7.21,2.7Z"/></g><path class="cls-8" d="M9.16,57.48a6.46,6.46,0,0,0,.49,3.06c.34,1,.76,1.94,1.16,2.91"/><path class="cls-8" d="M22.47,39.32a31.16,31.16,0,0,1-2.45,2"/><path class="cls-8" d="M10.55,76.77a6.71,6.71,0,0,0-3.14.7"/><g class="cls-9"><path class="cls-10" d="M3.7,83.56c.29-2.34.69-4.66,1.08-7v0l0-.09c.8-1.56,1.6-3.13,2.43-4.67s1.66-3.1,2.51-4.64l-.06.77Q8.84,65.69,8,63.47C7.45,62,6.88,60.52,6.34,59l-.15-.41.18-.37c1-1.9,1.87-3.81,2.83-5.7s1.93-3.78,2.93-5.65c2-3.75,4-7.47,6.24-11.11-1.49,4-3.15,7.9-4.86,11.78-.85,2-1.74,3.87-2.63,5.8s-1.81,3.83-2.72,5.75l0-.78c.56,1.47,1.08,3,1.63,4.44s1.06,3,1.57,4.47l.15.42-.21.34c-.91,1.51-1.83,3-2.77,4.49s-1.89,3-2.84,4.44l0-.15C5.12,79.06,4.46,81.33,3.7,83.56Z"/></g></g><path class="cls-11" d="M41.41,11c2.18,5-2,11.63-2,11.63l.38,4-3.43.29a9.48,9.48,0,0,0-1.16,4.91c-4.42,0-9-1.29-14.52-3.83a7.83,7.83,0,0,1,1.81-4.08L18,21.71l2.86-2.39a18,18,0,0,1-4.36-3.73s.65-8.25,6.34-11.93C26.27,1.43,37.34,1.71,41.41,11Z"/><path class="cls-12" d="M41.41,11c2.18,5-2,11.63-2,11.63l.38,4-3.43.29a9.48,9.48,0,0,0-1.16,4.91c-4.42,0-9-1.29-14.52-3.83a7.83,7.83,0,0,1,1.81-4.08L18,21.71l2.86-2.39a18,18,0,0,1-4.36-3.73s.65-8.25,6.34-11.93C26.27,1.43,37.34,1.71,41.41,11Z"/><path d="M24.71,14.2c-.95,3.41.11,6.69,2.35,7.31,2.07.58,3.42-.94,4.17-2.5L25,13.36A7.49,7.49,0,0,0,24.71,14.2Z"/><path d="M33.87,19.58c-.1,1.79.16,2.68,1.73,3.12s3.56-1.21,4.26-3.72a6.3,6.3,0,0,0,.22-1.1Z"/><polygon points="22.98 29.1 25.78 24.68 24.84 29.83 22.98 29.1"/><polygon points="26.66 30.85 29.4 26.97 28.5 31.64 26.66 30.85"/><path d="M29.33,18.53l.5-.22a4.91,4.91,0,0,0,.44-.25,3.12,3.12,0,0,0,.77-.73,5.11,5.11,0,0,0,.89-2.17,5.65,5.65,0,0,1,0,2.59,4.43,4.43,0,0,1-.56,1.31,4.11,4.11,0,0,1-.44.59l-.47.51Z"/><path d="M34,20.8l-.13-.69a4.59,4.59,0,0,1-.06-.73A4.67,4.67,0,0,1,34,18a5.68,5.68,0,0,1,1.39-2.18A5.18,5.18,0,0,0,35,18.1a3.33,3.33,0,0,0,.27,1,3.88,3.88,0,0,0,.24.45l.31.45Z"/><polygon points="31.18 32.21 33.66 28.76 33.03 32.97 31.18 32.21"/><polygon points="33.09 21.93 33.71 24.77 29.89 24.44 32.24 21.74 33.09 21.93"/><g class="cls-6"><path class="cls-13" d="M36.64,29.43c-4.13-.31-8.26-.56-12.08-4.14l-.43-2.8-2.44-1.2,1.47-2.79-2.44-4c0-6,3.36-10.17,11-12.08a12,12,0,0,0-9.14-.12,26.58,26.58,0,0,0-7.27,12.76l3.81,4s-2.56,2-2.1,2.87,3.65,2.14,3.65,2.14l-1.47,4.35a29.37,29.37,0,0,0,16.92,4Z"/></g><g class="cls-6"><path class="cls-8" d="M32.39,2.23a17,17,0,0,0-7.65,3.84"/></g><g class="cls-6"><path class="cls-8" d="M42,9.78c-.78.43-1.66.62-2.45,1"/></g><g class="cls-9"><path class="cls-10" d="M35.16,31.82l-.95.06c-.32,0-.63.06-1,.05-.63,0-1.29,0-1.92-.08s-1.28-.11-1.91-.24-1.26-.21-1.88-.37-1.26-.29-1.87-.49-1.23-.36-1.83-.58-1.21-.42-1.8-.66l-1.77-.72-.62-.26.11-.63L20,26.64l.42-1.21c.19-.37.38-.74.58-1.11l.71-1L22,24.78l-4.49-2.17-1.38-.69,1.18-1,2.88-2.38.2,1.62-.7-.43a5.45,5.45,0,0,1-.66-.45c-.39-.34-.79-.66-1.16-1-.72-.69-1.39-1.41-2-2.13l-.27-.3,0-.35A17,17,0,0,1,16,13.71c.14-.58.31-1.16.49-1.73a16.15,16.15,0,0,1,.64-1.68c.12-.28.24-.55.38-.82s.26-.54.41-.8a14.9,14.9,0,0,1,1-1.51c.17-.25.36-.48.55-.71s.37-.47.59-.68l.64-.62c.22-.2.47-.37.69-.56a12.86,12.86,0,0,1,1.49-.94l-.65.58a5.86,5.86,0,0,0-.6.62c-.19.22-.4.41-.57.64l-.51.69c-.18.22-.31.48-.47.71a7.63,7.63,0,0,0-.42.73c-.27.5-.5,1-.73,1.53-.11.25-.2.52-.3.79a7.52,7.52,0,0,0-.27.8c-.18.53-.32,1.08-.46,1.62s-.24,1.1-.32,1.65-.15,1.12-.19,1.63L17.1,15c.67.67,1.34,1.32,2,1.93.34.3.71.56,1.06.84a5.24,5.24,0,0,0,.53.34l.53.33,1.22.74-1,.87-2.84,2.42-.2-1.66c1.49.73,3,1.49,4.46,2.23l1,.51-.7,1-.61.83-.51.86-.37.92-.21.95-.5-.89,1.69.8c.56.28,1.13.52,1.7.77s1.15.47,1.72.71,1.16.45,1.74.66,1.19.38,1.78.57,1.2.33,1.8.48,1.22.25,1.84.38c.31.07.62.09.94.14Z"/></g></g></g></g></g></g></g></svg>