<svg xmlns="http://www.w3.org/2000/svg" viewBox="0 0 51.95 79.75"><defs><style>.cls-1{isolation:isolate;}.cls-10,.cls-16,.cls-2,.cls-4,.cls-9{fill:none;stroke:#000;}.cls-10,.cls-16,.cls-2{stroke-linecap:round;stroke-linejoin:round;}.cls-2,.cls-4{stroke-width:6px;}.cls-3{fill:#f5cb11;}.cls-4,.cls-9{stroke-miterlimit:10;}.cls-5{fill:#bfaa84;}.cls-6{mix-blend-mode:multiply;}.cls-7{fill:#84736b;}.cls-8{fill:#a86b47;}.cls-10,.cls-9{stroke-width:5px;}.cls-11{fill:#b01b1a;}.cls-12{fill:#7d4b13;}.cls-13{mix-blend-mode:color-dodge;}.cls-14{fill:#6e0c0c;}.cls-15{fill:#ededed;}.cls-16{stroke-width:4px;}</style></defs><title>fire staff</title><g class="cls-1"><g id="Calque_2" data-name="Calque 2"><g id="FIRE_WIZARD" data-name="FIRE WIZARD"><g id="FIRE_WIZARD-2" data-name="FIRE WIZARD"><g id="L_ARM" data-name="L ARM"><g id="STAFF"><path class="cls-2" d="M9.54,71.37l-2.42-1.3L3,73.52a5.57,5.57,0,0,0,5.9,3.19Z"/><path class="cls-3" d="M9.54,71.37l-2.42-1.3L3,73.52a5.57,5.57,0,0,0,5.9,3.19Z"/><path class="cls-4" d="M9.82,70.39a2.65,2.65,0,0,1-2-1.09L28.87,26.86l4.94,2.67Z"/><path class="cls-5" d="M9.82,70.39a2.65,2.65,0,0,1-2-1.09L28.87,26.86l4.94,2.67Z"/><g class="cls-6"><polygon class="cls-7" points="26.15 36.45 8.29 70.94 7.12 70.07 23.32 33.19 26.15 36.45"/></g><g class="cls-6"><polygon class="cls-8" points="7.12 71.68 3.43 76.22 1.59 73.14 5.53 70.06 7.12 71.68"/></g><path class="cls-9" d="M29.77,35.33s4.39,2.47,7.4-.63a10.45,10.45,0,0,0,2.44-6.27l-3.54.51s-.81,4.62-2.3,4.65-3.48,0-3.48,0S29.14,34.35,29.77,35.33Z"/><path class="cls-3" d="M29.77,35.33s4.39,2.47,7.4-.63a10.45,10.45,0,0,0,2.44-6.27l-3.54.51s-.81,4.62-2.3,4.65-3.48,0-3.48,0S29.14,34.35,29.77,35.33Z"/><path class="cls-9" d="M26.13,33.62s-4.25-3.25-3.52-6.54,3.9-5.47,3.9-5.47L28,24.85s-3.42,3.21-2.63,4.48,1.89,2.92,1.89,2.92S27.29,33.61,26.13,33.62Z"/><path class="cls-3" d="M26.13,33.62s-4.25-3.25-3.52-6.54,3.9-5.47,3.9-5.47L28,24.85s-3.42,3.21-2.63,4.48,1.89,2.92,1.89,2.92S27.29,33.61,26.13,33.62Z"/><path class="cls-10" d="M29.87,26.29c-1.63,3-3.06,5.61-3,9.19.7.82,1.51,1.56,2.88,1A13.31,13.31,0,0,1,32.9,28.4Z"/><path class="cls-3" d="M29.87,26.29c-1.63,3-3.06,5.61-3,9.19.7.82,1.51,1.56,2.88,1A13.31,13.31,0,0,1,32.9,28.4Z"/><path class="cls-4" d="M42.24,28.58c-.31.58-5.16,2.91-10.74-.11s-6.28-8.35-6-8.93,2,2.85,7.62,5.87S42.56,28,42.24,28.58Z"/><path class="cls-3" d="M42.24,28.58c-.31.58-5.16,2.91-10.74-.11s-6.28-8.35-6-8.93,2,2.85,7.62,5.87S42.56,28,42.24,28.58Z"/><path class="cls-9" d="M48.05,20.46A10.77,10.77,0,1,1,43.7,5.87,10.76,10.76,0,0,1,48.05,20.46Z"/><path class="cls-11" d="M48.05,20.46A10.77,10.77,0,1,1,43.7,5.87,10.76,10.76,0,0,1,48.05,20.46Z"/><g class="cls-6"><path class="cls-12" d="M45.28,24.47A11.52,11.52,0,1,1,38.91,3.74a11.38,11.38,0,0,0-3.22,3.74,11.54,11.54,0,0,0,9.59,17Z"/></g><g class="cls-13"><path class="cls-14" d="M32.4,20.16c1.09,1.76,2.09,3.26,1.57,3.58s-2.35-.66-3.44-2.42-1-3.63-.5-3.95S31.32,18.4,32.4,20.16Z"/></g><path class="cls-15" d="M46.64,11.07c.82,1.73.54,3.35,0,3.61s-1.17-.95-2-2.68-1.52-3.32-1-3.58S45.83,9.34,46.64,11.07Z"/><g class="cls-6"><path class="cls-8" d="M22.55,24.6s2,2.9,2.06,4a23.52,23.52,0,0,1-.69,4.08l1.16,1.19,2.29-6.33-3.44-5.37Z"/></g><g class="cls-6"><path class="cls-8" d="M31.23,32.71s-2.4-.64-2.79-.09A29.42,29.42,0,0,0,27.22,37l-1.88-2,2.23-6.76L32.37,31Z"/></g><g class="cls-6"><path class="cls-8" d="M33.08,36.83l.47-1.92a2.21,2.21,0,0,0,2-1.28l2.62.57,1.35-2.31-4.9-.75c-.7,1.42-1.59,1.76-2.62,1.33l-.82,4.67Z"/></g><path class="cls-16" d="M42.15,2.71a30.6,30.6,0,0,1-2.92,3.13,4.71,4.71,0,0,1-1.72-3.55A5.9,5.9,0,0,1,42.15,2.71Z"/><path class="cls-3" d="M42.15,2.71a30.6,30.6,0,0,1-2.92,3.13,4.71,4.71,0,0,1-1.72-3.55A5.9,5.9,0,0,1,42.15,2.71Z"/><g class="cls-6"><path class="cls-8" d="M39.49,1.22a9.63,9.63,0,0,0-.4,5.12c-1.74-1.07-2.4-2-2.72-4.6Z"/></g><path class="cls-16" d="M50,21.81A44.19,44.19,0,0,0,44.15,20a8,8,0,0,0,2.89,5C47.87,24.74,49.82,23.48,50,21.81Z"/><path class="cls-3" d="M50,21.81A44.19,44.19,0,0,0,44.15,20a8,8,0,0,0,2.89,5C47.87,24.74,49.82,23.48,50,21.81Z"/><g class="cls-6"><path class="cls-8" d="M49.47,24.53a22.9,22.9,0,0,1-6.18-5.12c-.43,2.45.61,4.18,3.4,6.8Z"/></g><path class="cls-16" d="M26.5,18.7a30.51,30.51,0,0,0,5.73-3,10.09,10.09,0,0,0-5.89-1.54C25.9,14.84,25.39,17.28,26.5,18.7Z"/><path class="cls-3" d="M26.5,18.7a30.51,30.51,0,0,0,5.73-3,10.09,10.09,0,0,0-5.89-1.54C25.9,14.84,25.39,17.28,26.5,18.7Z"/><g class="cls-6"><path class="cls-8" d="M24.88,16.16a23.5,23.5,0,0,1,8-.65c-1.16-1.85-3.79-2.35-7.2-2.59Z"/></g></g></g></g></g></g></g></svg>