<svg xmlns="http://www.w3.org/2000/svg" viewBox="0 0 49.74 104.03"><defs><style>.cls-1{isolation:isolate;}.cls-11,.cls-17,.cls-19,.cls-2{fill:none;stroke:#000;stroke-linecap:round;stroke-linejoin:round;}.cls-2{stroke-width:5px;}.cls-3{fill:#6daae3;}.cls-4{fill:#227fd6;}.cls-15,.cls-4{mix-blend-mode:multiply;}.cls-5{mix-blend-mode:overlay;}.cls-6{fill:#dad8f5;}.cls-7{fill:#8cc2f5;}.cls-8{fill:#fff;}.cls-9{mix-blend-mode:soft-light;}.cls-10{fill:#6caae6;}.cls-11{stroke-width:3px;}.cls-12{fill:#f5cb11;}.cls-13{fill:#e2e7f7;}.cls-14{opacity:0.4;}.cls-16{fill:#b393b0;}.cls-18{fill-rule:evenodd;}.cls-19{stroke-width:4px;}</style></defs><title>holy staff</title><g class="cls-1"><g id="Calque_2" data-name="Calque 2"><g id="ANGEL"><g id="ANGEL-2" data-name="ANGEL"><g id="L_ARM" data-name="L ARM"><g id="STAFF"><path class="cls-2" d="M47.2,15.38C47.7,14.07,43.33,3,42.07,2.53S30.18,7.45,29.69,8.71c-3,7.81.69,22.37,1.4,22.65S44.58,22.25,47.2,15.38Z"/><path class="cls-3" d="M47.2,15.38C47.7,14.07,43.33,3,42.07,2.53S30.18,7.45,29.69,8.71c-3,7.81.69,22.37,1.4,22.65S44.58,22.25,47.2,15.38Z"/><path class="cls-4" d="M29.69,8.71c-2.67,7-1.16,16.84.3,21.41.21.66.61,2,1,1L41.86,2.52C40,2.47,30.16,7.5,29.69,8.71Z"/><g class="cls-5"><path class="cls-6" d="M41.43,2.33l-1.31.8L36.67,5.18c-.71.42-1.49.87-2.28,1.37A28.7,28.7,0,0,0,32,8.14a9.05,9.05,0,0,0-1.09.91,2.15,2.15,0,0,0-.34.42s0,.09,0,0l-.07.19-.14.39-.18.66L30,11.5c-.09.51-.18,1-.24,1.57-.13,1.06-.18,2.14-.23,3.2s0,2.12,0,3.14.06,2,.14,2.94.14,1.82.24,2.64c.19,1.64.41,3,.57,4l.28,1.51L30.11,29a34.16,34.16,0,0,1-1.27-3.86c-.2-.81-.41-1.7-.58-2.65s-.32-2-.43-3-.15-2.15-.18-3.26a27.62,27.62,0,0,1,.14-3.39,15.61,15.61,0,0,1,.66-3.49L28.6,9l.07-.19a3.15,3.15,0,0,1,.17-.33,4.17,4.17,0,0,1,.68-.82,9.84,9.84,0,0,1,1.37-1.07A30.7,30.7,0,0,1,36.09,4,35.69,35.69,0,0,1,41.43,2.33Z"/></g><path class="cls-4" d="M32.76,26.79S31.43,14,32.85,10.32C33.56,8.46,40.5,6.4,40.5,6.4s4.08,6.49,3.24,8.71S32.76,26.79,32.76,26.79Z"/><path class="cls-7" d="M38.47,21.69c.44-1.16,2.55-3.21,2.78-2.91s-.32.85-.53,1.4S38.12,22.61,38.47,21.69Z"/><path class="cls-8" d="M43.66,17.62a4.72,4.72,0,0,1,1.41-1.75C46.83,15.66,43.27,18.54,43.66,17.62Z"/><path class="cls-4" d="M32,15.61c-1-1.07.39-2.59.7-1.47S32.55,16.23,32,15.61Z"/><g class="cls-9"><path class="cls-7" d="M32.08,17.75c.66-.57,1.64-2.05,2-1.63s.71.71-.19,2A7.73,7.73,0,0,1,32.26,20C31.55,20.7,31.36,18.37,32.08,17.75Z"/></g><path class="cls-4" d="M38.36,19.3c-.81.23-.1-2.91.41-3.72s2.09-3,2.42-3.36.56-1.13.94-.38a7.28,7.28,0,0,1-.1,3.78A10.86,10.86,0,0,1,38.36,19.3Z"/><g class="cls-9"><path class="cls-7" d="M37.43,9a4.61,4.61,0,0,1-2.22.35c-.49-.23-3,.42-1.58-1A22,22,0,0,1,38.4,5.22C39,4.93,38.3,8.48,37.43,9Z"/></g><path class="cls-8" d="M44.87,12.86c-.37.45-1.15-3.57-1.63-4.76S41.41,2.19,43,5.22,45.75,11.76,44.87,12.86Z"/><path class="cls-10" d="M35.84,18.52c.35-1.36.78-2.69,1.21-4s.91-2.63,1.4-3.94S39.45,8,40,6.7s1.11-2.56,1.74-3.81c-.34,1.36-.77,2.69-1.21,4s-.91,2.63-1.39,3.94-1,2.59-1.56,3.87S36.48,17.27,35.84,18.52Z"/><polygon class="cls-11" points="39.3 9.14 35.79 14.15 36.32 16.97 38.45 15.24 39.3 9.14"/><polygon class="cls-12" points="39.3 9.14 35.79 14.15 36.32 16.97 38.45 15.24 39.3 9.14"/><polygon class="cls-11" points="28.27 10.48 26.54 16.24 28.52 18.94 29.14 16.1 28.27 10.48"/><polygon class="cls-12" points="28.27 10.48 26.54 16.24 28.52 18.94 29.14 16.1 28.27 10.48"/><polygon class="cls-11" points="46.56 18.13 44.02 23.58 40.75 24.27 42.18 21.74 46.56 18.13"/><polygon class="cls-12" points="46.56 18.13 44.02 23.58 40.75 24.27 42.18 21.74 46.56 18.13"/><rect class="cls-2" x="-13.84" y="71.99" width="56.98" height="4.3" transform="translate(-59.85 61.44) rotate(-69.15)"/><rect class="cls-13" x="-13.84" y="71.99" width="56.98" height="4.3" transform="translate(-59.85 61.44) rotate(-69.15)"/><polygon class="cls-14" points="2.85 101.62 24 46.11 25.7 46.51 4.55 102.01 2.85 101.62"/><rect class="cls-2" x="5.86" y="89.59" width="3.17" height="6.91" transform="translate(-82.15 66.88) rotate(-69.14)"/><rect class="cls-12" x="5.86" y="89.59" width="3.17" height="6.91" transform="translate(-82.15 66.88) rotate(-69.14)"/><g class="cls-15"><polygon class="cls-16" points="6.55 95.7 4.14 94.73 6.21 89.3 8.62 90.28 6.55 95.7"/></g><path class="cls-17" d="M14.25,83.6a11,11,0,0,1-2.55,1.25"/><path class="cls-17" d="M7.6,90.29a10,10,0,0,1-.85,2.54"/><path class="cls-2" d="M27,48.7l-4.7-1.8L27,29.3a17,17,0,0,0,8.3,3.16Z"/><path class="cls-13" d="M27,48.7l-4.7-1.8L27,29.3a17,17,0,0,0,8.3,3.16Z"/><path class="cls-18" d="M30,38.22c-.5,1.31-1.57,2.13-2.39,1.81S26.51,38.4,27,37.09,28.58,35,29.4,35.27,30.48,36.91,30,38.22Z"/><polygon class="cls-2" points="27.36 52.44 23.48 50.96 19.6 49.48 19.3 46.54 21.48 44.54 25.36 46.02 29.24 47.49 29.55 50.44 27.36 52.44"/><polygon class="cls-12" points="27.36 52.44 23.48 50.96 19.6 49.48 19.3 46.54 21.48 44.54 25.36 46.02 29.24 47.49 29.55 50.44 27.36 52.44"/><line class="cls-17" x1="18.46" y1="46.11" x2="30.19" y2="50.58"/><g class="cls-15"><path class="cls-16" d="M23.43,52.25l-2.68-1-.36-4.25,3-2.8,2.69,1C22.9,47.31,22.93,49.76,23.43,52.25Z"/></g><polygon class="cls-14" points="25.8 44.98 24.06 44.46 27.84 29.34 31.31 30.51 25.8 44.98"/><path class="cls-19" d="M34.49,22l1.67,8.37a18.12,18.12,0,0,1-8.49-3.23Z"/><path class="cls-12" d="M34.49,22l1.67,8.37a18.12,18.12,0,0,1-8.49-3.23Z"/><path class="cls-19" d="M36.74,32.44A47,47,0,0,1,26,28.35l.64-1.7a48.71,48.71,0,0,0,10.75,4.1Z"/><path class="cls-12" d="M36.74,32.44A47,47,0,0,1,26,28.35l.64-1.7a48.71,48.71,0,0,0,10.75,4.1Z"/><g class="cls-15"><path class="cls-16" d="M35,21.14c-2.61,3.14-4.29,6.64-3.87,10.22L26.56,29.5l1.06-3.06-.16-.62Z"/></g></g></g></g></g></g></g></svg>