<svg xmlns="http://www.w3.org/2000/svg" viewBox="0 0 115.38 63.73"><defs><style>.cls-1{isolation:isolate;}.cls-12,.cls-2,.cls-6,.cls-7,.cls-8{fill:none;stroke:#000;}.cls-2,.cls-6,.cls-7{stroke-linecap:round;stroke-linejoin:round;}.cls-2{stroke-width:5px;}.cls-3{fill:#f5cb11;}.cls-4{fill:#573c2b;}.cls-5{opacity:0.4;}.cls-7{stroke-width:4.26px;}.cls-12,.cls-8{stroke-miterlimit:10;}.cls-8{stroke-width:5.5px;}.cls-9{fill:#545452;}.cls-10{mix-blend-mode:soft-light;}.cls-11{fill:#c1c2bc;}.cls-12{stroke-width:2.2px;}</style></defs><title>ninja sword</title><g class="cls-1"><g id="Calque_2" data-name="Calque 2"><g id="NINJA"><g id="NINJA-2" data-name="NINJA"><g id="L_ARM" data-name="L ARM"><g id="N_SWORD" data-name="N SWORD"><path class="cls-2" d="M38.55,42.1c1.35,3,2,5.68,1.47,5.92s-2.08-2-3.43-5-2-5.68-1.48-5.92S37.19,39.07,38.55,42.1Z"/><path class="cls-3" d="M38.55,42.1c1.35,3,2,5.68,1.47,5.92s-2.08-2-3.43-5-2-5.68-1.48-5.92S37.19,39.07,38.55,42.1Z"/><path class="cls-2" d="M34.68,46.93,6.7,59.5a5.39,5.39,0,0,1-2.39-5.35l28-12.56Z"/><path class="cls-4" d="M34.68,46.93,6.7,59.5a5.39,5.39,0,0,1-2.39-5.35l28-12.56Z"/><path class="cls-5" d="M4.16,57.41C11.4,55.59,27.7,48.23,34,44L35.26,47,5.63,60.41l-1.4-2.84"/><line class="cls-6" x1="11.48" y1="49.65" x2="10.78" y2="58.95"/><line class="cls-6" x1="7.17" y1="51.65" x2="15.93" y2="56.56"/><line class="cls-6" x1="17.04" y1="47.13" x2="16.34" y2="56.43"/><line class="cls-6" x1="12.74" y1="49.13" x2="21.49" y2="54.05"/><line class="cls-6" x1="22.16" y1="44.81" x2="21.46" y2="54.11"/><line class="cls-6" x1="17.85" y1="46.81" x2="26.61" y2="51.73"/><line class="cls-6" x1="27.23" y1="42.51" x2="26.53" y2="51.82"/><line class="cls-6" x1="22.92" y1="44.52" x2="31.68" y2="49.43"/><path class="cls-7" d="M9.11,60.21A5.26,5.26,0,0,1,6,61.6c-2.7-1-4.44-5.1-3.7-8.27A9,9,0,0,1,5.41,52C5,55.53,6.12,58.33,9.11,60.21Z"/><path class="cls-3" d="M9.11,60.21A5.26,5.26,0,0,1,6,61.6c-2.7-1-4.44-5.1-3.7-8.27A9,9,0,0,1,5.41,52C5,55.53,6.12,58.33,9.11,60.21Z"/><path class="cls-5" d="M1.26,55.78c2.49,3.74,5.71,4.92,5.42.78a6.89,6.89,0,0,0,3.68,3.92,9.34,9.34,0,0,1-4.27,2.19C2.86,61.3,1.29,59,1.26,55.78Z"/><path class="cls-6" d="M2.41,57.83A5.34,5.34,0,0,0,4,58.48"/><path class="cls-2" d="M39.82,48.16a8.8,8.8,0,0,1-4.74,2.12A18,18,0,0,1,30,38.9a15.32,15.32,0,0,1,4.74-2.12A14.33,14.33,0,0,0,39.82,48.16Z"/><path class="cls-3" d="M39.82,48.16a8.8,8.8,0,0,1-4.74,2.12A18,18,0,0,1,30,38.9a15.32,15.32,0,0,1,4.74-2.12A14.33,14.33,0,0,0,39.82,48.16Z"/><path class="cls-6" d="M35.11,47.49c1.16.81,2.42,1.44,3.65,2.13"/><path class="cls-6" d="M33.19,43.43a5.42,5.42,0,0,0,.48,1.67"/><path class="cls-5" d="M29.73,41.44c3.4,3.94,6.17,5.2,8.28,3.62l2.33,4.38-5.15,2.23C31.86,49,30.51,45.65,29.73,41.44Z"/><path class="cls-8" d="M109.93,13.9,40.75,45.22a14.13,14.13,0,0,1-3.16-7l74.1-33.55Z"/><path class="cls-9" d="M109.93,13.9,40.75,45.22a14.13,14.13,0,0,1-3.16-7l74.1-33.55Z"/><g class="cls-10"><path class="cls-11" d="M111.68,4.69l-.31,1.65L37.86,39.62c-.11-.45-.2-.91-.27-1.39Z"/></g><polygon class="cls-12" points="43.09 44.16 109.93 13.9 110.77 9.48 43.79 39.8 43.09 44.16"/><polygon class="cls-11" points="43.09 44.16 109.93 13.9 110.77 9.48 43.79 39.8 43.09 44.16"/><g class="cls-10"><polygon class="cls-11" points="70.95 21.22 71.08 33.29 75.27 31.02 75.89 19.09 70.95 21.22"/></g><g class="cls-10"><polygon class="cls-11" points="79.72 17.75 79.84 29.82 90.94 24.41 91.57 12.47 79.72 17.75"/></g></g></g></g></g></g></g></svg>