<svg xmlns="http://www.w3.org/2000/svg" viewBox="0 0 51.5 51.5"><defs><style>.cls-1{isolation:isolate;}.cls-2,.cls-6,.cls-7,.cls-9{fill:none;}.cls-2,.cls-6,.cls-7{stroke:#000;}.cls-2{stroke-miterlimit:10;stroke-width:5px;}.cls-3{fill:#81827e;}.cls-4{fill:#724a1a;}.cls-5{opacity:0.4;}.cls-6,.cls-7,.cls-9{stroke-linecap:round;stroke-linejoin:round;}.cls-6{stroke-width:4px;}.cls-8{fill:#fff;}.cls-9{stroke:#fff;stroke-width:0.75px;}.cls-10{mix-blend-mode:overlay;}.cls-11{fill:#e0dfd5;}</style></defs><title>round buckler</title><g class="cls-1"><g id="Calque_2" data-name="Calque 2"><g id="DWARF"><g id="DWARF-2" data-name="DWARF"><g id="SHIELD"><path class="cls-2" d="M49,25.75A23.25,23.25,0,1,1,25.75,2.5,23.25,23.25,0,0,1,49,25.75Z"/><path class="cls-3" d="M49,25.75A23.25,23.25,0,1,1,25.75,2.5,23.25,23.25,0,0,1,49,25.75Z"/><path class="cls-2" d="M39.56,25.12A16.43,16.43,0,1,1,23.13,8.69,16.42,16.42,0,0,1,39.56,25.12Z"/><path class="cls-4" d="M39.56,25.12A16.43,16.43,0,1,1,23.13,8.69,16.42,16.42,0,0,1,39.56,25.12Z"/><path class="cls-5" d="M30.76,25a9.46,9.46,0,1,1-9.45-9.45A9.45,9.45,0,0,1,30.76,25Z"/><path class="cls-6" d="M27.05,24.9a6,6,0,1,1-6-6A6,6,0,0,1,27.05,24.9Z"/><path class="cls-3" d="M27.05,24.9a6,6,0,1,1-6-6A6,6,0,0,1,27.05,24.9Z"/><path class="cls-5" d="M26.66,29.17a7.05,7.05,0,0,1-11.92-7.51,6.87,6.87,0,0,0,2.62,3.58,7.07,7.07,0,0,0,9.85-1.69,4.76,4.76,0,0,0,.39-.64A7,7,0,0,1,26.66,29.17Z"/><path class="cls-5" d="M46.15,39.74A24.66,24.66,0,0,1,3.46,15.17c2,21.76,34.15,30.17,45.11,2.58A24.43,24.43,0,0,1,46.15,39.74Z"/><path class="cls-7" d="M9.23,13.63c6.1.28,12.2.09,18.3.35"/><path class="cls-7" d="M30.19,14.19c2.31.35,4.68,0,7,.53"/><path class="cls-7" d="M28,21.43c4-.05,7.92.28,11.88.47"/><line class="cls-7" x1="25.11" y1="30.47" x2="40.12" y2="30.92"/><path class="cls-7" d="M5.5,20.45c2.77.6,5.62.27,8.42.61"/><path class="cls-7" d="M5.79,29.81c3,0,6-.62,9,0"/><path class="cls-7" d="M9.43,36.35c3.08.47,6.21.27,9.32.52"/><line class="cls-7" x1="21.04" y1="37.16" x2="24.67" y2="37.25"/><line class="cls-7" x1="28.77" y1="26.47" x2="32.4" y2="26.56"/><line class="cls-7" x1="20.06" y1="7.17" x2="22.52" y2="9.83"/><line class="cls-7" x1="30.08" y1="37.72" x2="34.52" y2="37.81"/><path class="cls-7" d="M38.1,35.57c1.33.32,2.71.22,4.06.43"/><path class="cls-7" d="M25,47.64a5.63,5.63,0,0,0,.1,2.74"/><path class="cls-7" d="M34.76,10.79A8.26,8.26,0,0,0,38,9.5c1-.6,2-1.27,3-1.8"/><path class="cls-7" d="M7,9.16a7.81,7.81,0,0,0,1.5,1.37,14.68,14.68,0,0,0,1.68,1.15"/><path class="cls-7" d="M16.09,41.9a15.57,15.57,0,0,0-1.22,2.41"/><path class="cls-7" d="M50.49,24.42a22.37,22.37,0,0,1-3.84-.21"/><path class="cls-8" d="M21.73,19.76c-.47-.07-1.57.44-1,.64s3.45,1.54,3.6,1.1S22.88,19.92,21.73,19.76Z"/><path class="cls-9" d="M28,3.51A20.18,20.18,0,0,1,33.1,4.72a15.14,15.14,0,0,1,4.64,2.47"/><path class="cls-9" d="M41,9.75a14.36,14.36,0,0,1,2.09,2.52"/><g class="cls-10"><path class="cls-11" d="M49,25.75v.82l0,1A8.13,8.13,0,0,1,49,28.9c-.06.5-.1,1.06-.18,1.66l-.4,1.94c-.16.69-.42,1.4-.65,2.16s-.63,1.51-1,2.32-.85,1.58-1.36,2.38a22.23,22.23,0,0,1-1.77,2.35A22.36,22.36,0,0,1,38.9,46a23.73,23.73,0,0,1-6.16,3,26.82,26.82,0,0,1-7,1.07,27.86,27.86,0,0,1-3.52-.3,24.3,24.3,0,0,1-3.47-.77,24,24,0,0,1-6.16-3,22.67,22.67,0,0,1-4.73-4.26,22.35,22.35,0,0,1-1.78-2.35c-.5-.8-.93-1.61-1.35-2.38s-.73-1.56-1-2.32-.49-1.47-.65-2.16-.28-1.34-.4-1.93S2.6,29.4,2.54,28.9a8.07,8.07,0,0,1-.07-1.34l0-1v-.82l.1.82a18.16,18.16,0,0,0,.33,2.28l.33,1.6c.18.57.37,1.18.57,1.84s.54,1.31.83,2,.72,1.4,1.09,2.14.91,1.44,1.44,2.16A24.83,24.83,0,0,0,9,40.72a23.38,23.38,0,0,0,4.58,3.77,24.35,24.35,0,0,0,5.75,2.59,23.59,23.59,0,0,0,3.15.67,25.6,25.6,0,0,0,3.29.25,24.44,24.44,0,0,0,6.44-.92,24.35,24.35,0,0,0,5.75-2.59,23.09,23.09,0,0,0,4.58-3.77,24.83,24.83,0,0,0,1.79-2.12c.53-.72,1-1.46,1.44-2.16s.79-1.44,1.1-2.14.6-1.36.82-2,.39-1.27.57-1.84l.33-1.59a18.53,18.53,0,0,0,.33-2.29Z"/></g></g></g></g></g></g></svg>