<svg xmlns="http://www.w3.org/2000/svg" viewBox="0 0 93.83 92.82"><defs><style>.cls-1{isolation:isolate;}.cls-12,.cls-2,.cls-5{fill:none;stroke:#000;}.cls-12,.cls-2{stroke-linecap:round;stroke-linejoin:round;}.cls-2,.cls-5{stroke-width:5px;}.cls-3{fill:#454545;}.cls-3,.cls-9{opacity:0.4;}.cls-4{fill:#f5cb11;}.cls-5{stroke-miterlimit:10;}.cls-6{fill:#73736f;}.cls-7{mix-blend-mode:soft-light;}.cls-8{fill:#c1c2bc;}.cls-10{mix-blend-mode:multiply;}.cls-11{fill:#7f65a8;}</style></defs><title>sword</title><g class="cls-1"><g id="Calque_2" data-name="Calque 2"><g id="KNIGHT"><g id="KNIGHT-2" data-name="KNIGHT"><g id="L_ARM" data-name="L ARM"><g id="SWORD"><rect class="cls-2" x="6.1" y="74.05" width="22.29" height="4.5" transform="translate(-48.75 34.3) rotate(-44.79)"/><rect x="6.1" y="74.05" width="22.29" height="4.5" transform="translate(-48.75 34.3) rotate(-44.79)"/><rect class="cls-3" x="6.96" y="76.13" width="22.29" height="2.07" transform="translate(-49.11 35.16) rotate(-44.79)"/><path class="cls-2" d="M6.5,82.34,5.16,83.66A7.28,7.28,0,0,0,6,85.39l-3.16.47L2.5,90.32,7,90.16,7.61,87a6.52,6.52,0,0,0,1.68.8l1.34-1.32A7.85,7.85,0,0,1,6.5,82.34Z"/><path class="cls-4" d="M6.5,82.34,5.16,83.66A7.28,7.28,0,0,0,6,85.39l-3.16.47L2.5,90.32,7,90.16,7.61,87a6.52,6.52,0,0,0,1.68.8l1.34-1.32A7.85,7.85,0,0,1,6.5,82.34Z"/><path class="cls-5" d="M85.07,5.44a20.82,20.82,0,0,0-8.31,5.05l-53,52.61,6.46,6.5,53-52.6a21,21,0,0,0,5.11-8.27l1.59-4.85Z"/><path class="cls-6" d="M85.07,5.44a20.82,20.82,0,0,0-8.31,5.05l-53,52.61,6.46,6.5,53-52.6a21,21,0,0,0,5.11-8.27l1.59-4.85Z"/><g class="cls-7"><path class="cls-8" d="M89.92,3.88l-.65,2-3,.94A20.88,20.88,0,0,0,78,11.87L25.09,64.41l-1.31-1.32,53-52.6a20.85,20.85,0,0,1,8.3-5Z"/></g><path class="cls-8" d="M30.24,69.6l53-52.6a21,21,0,0,0,5.11-8.27l1.59-4.85L27,66.35Z"/><polygon class="cls-2" points="22.84 59.85 22.86 56.65 17.36 56.63 17.34 62.13 20.54 62.14 31.18 72.85 31.16 76.05 36.66 76.07 36.69 70.57 33.48 70.56 22.84 59.85"/><polygon class="cls-4" points="22.84 59.85 22.86 56.65 17.36 56.63 17.34 62.13 20.54 62.14 31.18 72.85 31.16 76.05 36.66 76.07 36.69 70.57 33.48 70.56 22.84 59.85"/><rect x="4.01" y="87.06" width="1.86" height="1.86" transform="translate(-83.07 92.66) rotate(-89.82)"/><rect x="18.81" y="58.1" width="1.86" height="1.86" transform="translate(-39.37 78.53) rotate(-89.76)"/><rect x="33.31" y="72.69" width="1.86" height="1.86" transform="translate(-39.49 107.63) rotate(-89.82)"/><rect class="cls-9" x="28.91" y="57.47" width="2.75" height="11.25" transform="translate(-35.66 39.65) rotate(-44.78)"/><g class="cls-10"><polygon class="cls-11" points="16.25 58.95 19.51 59.27 34 73.86 37.65 73.17 37.16 77.29 30.27 77.09 29.87 73.26 19.94 63.38 16.53 62.67 16.25 58.95"/></g><g class="cls-10"><path class="cls-11" d="M1.4,91.54a26.31,26.31,0,0,0,7.69-7.63l3,2.43L9.6,89.16l-1.12-.42-.36,2.12Z"/></g><g class="cls-7"><polygon class="cls-8" points="51.46 49.47 46.4 54.49 47.17 38.23 52.22 33.21 51.46 49.47"/></g><g class="cls-7"><polygon class="cls-8" points="64.14 36.88 56.07 44.89 56.84 28.63 64.91 20.62 64.14 36.88"/></g><path class="cls-12" d="M25.9,66.05a5.47,5.47,0,0,1,1.56,1.2l1.38,1.43"/><line class="cls-12" x1="7.86" y1="86.01" x2="8.97" y2="84.1"/><path class="cls-12" d="M29.05,64.16a24.53,24.53,0,0,0,2.73-2.37"/><path class="cls-12" d="M44.84,56.63a25.14,25.14,0,0,0,1-4.47"/><path class="cls-12" d="M78.87,7.38A17.06,17.06,0,0,1,78,11.84"/><path class="cls-12" d="M67.09,24.7a8.87,8.87,0,0,1,1.06-1.15"/></g></g></g></g></g></g></svg>